<?xml version="1.0" encoding="UTF-8" standalone="no"?>
<!DOCTYPE svg PUBLIC "-//W3C//DTD SVG 1.1//EN"
 "http://www.w3.org/Graphics/SVG/1.1/DTD/svg11.dtd">
<!-- Generated by graphviz version 14.0.1 (20251006.0113)
 -->
<!-- Title: MASTIF_Packages Pages: 1 -->
<svg width="1174pt" height="320pt"
 viewBox="0.00 0.00 1174.00 320.00" xmlns="http://www.w3.org/2000/svg" xmlns:xlink="http://www.w3.org/1999/xlink">
<g id="graph0" class="graph" transform="scale(1 1) rotate(0) translate(4 316.25)">
<title>MASTIF_Packages</title>
<polygon fill="white" stroke="none" points="-4,4 -4,-316.25 1170.25,-316.25 1170.25,4 -4,4"/>
<!-- HuggingFaceAPI -->
<g id="node1" class="node">
<title>HuggingFaceAPI</title>
<polygon fill="#e0e0e0" stroke="black" points="1166.25,-36 1077.5,-36 1077.5,-32 1073.5,-32 1073.5,-28 1077.5,-28 1077.5,-8 1073.5,-8 1073.5,-4 1077.5,-4 1077.5,0 1166.25,0 1166.25,-36"/>
<polyline fill="none" stroke="black" points="1077.5,-32 1081.5,-32 1081.5,-28 1077.5,-28"/>
<polyline fill="none" stroke="black" points="1077.5,-8 1081.5,-8 1081.5,-4 1077.5,-4"/>
<text xml:space="preserve" text-anchor="middle" x="1121.88" y="-19.35" font-family="Helvetica,sans-Serif" font-size="12.00">HuggingFace</text>
<text xml:space="preserve" text-anchor="middle" x="1121.88" y="-6.6" font-family="Helvetica,sans-Serif" font-size="12.00">Inference API</text>
</g>
<!-- OpenAIAPI -->
<g id="node2" class="node">
<title>OpenAIAPI</title>
<polygon fill="#e0e0e0" stroke="black" points="1005,-36 926.75,-36 926.75,-32 922.75,-32 922.75,-28 926.75,-28 926.75,-8 922.75,-8 922.75,-4 926.75,-4 926.75,0 1005,0 1005,-36"/>
<polyline fill="none" stroke="black" points="926.75,-32 930.75,-32 930.75,-28 926.75,-28"/>
<polyline fill="none" stroke="black" points="926.75,-8 930.75,-8 930.75,-4 926.75,-4"/>
<text xml:space="preserve" text-anchor="middle" x="965.88" y="-12.97" font-family="Helvetica,sans-Serif" font-size="12.00">OpenAI API</text>
</g>
<!-- Mind2WebDataset -->
<g id="node3" class="node">
<title>Mind2WebDataset</title>
<polygon fill="#e0e0e0" stroke="black" points="266,-36 181.75,-36 181.75,-32 177.75,-32 177.75,-28 181.75,-28 181.75,-8 177.75,-8 177.75,-4 181.75,-4 181.75,0 266,0 266,-36"/>
<polyline fill="none" stroke="black" points="181.75,-32 185.75,-32 185.75,-28 181.75,-28"/>
<polyline fill="none" stroke="black" points="181.75,-8 185.75,-8 185.75,-4 181.75,-4"/>
<text xml:space="preserve" text-anchor="middle" x="223.88" y="-19.35" font-family="Helvetica,sans-Serif" font-size="12.00">Mind2Web</text>
<text xml:space="preserve" text-anchor="middle" x="223.88" y="-6.6" font-family="Helvetica,sans-Serif" font-size="12.00">Dataset (HF)</text>
</g>
<!-- tester -->
<g id="node4" class="node">
<title>tester</title>
<path fill="#4a90d9" stroke="black" d="M537.88,-310C537.88,-310 507.88,-310 507.88,-310 501.88,-310 495.88,-304 495.88,-298 495.88,-298 495.88,-286 495.88,-286 495.88,-280 501.88,-274 507.88,-274 507.88,-274 537.88,-274 537.88,-274 543.88,-274 549.88,-280 549.88,-286 549.88,-286 549.88,-298 549.88,-298 549.88,-304 543.88,-310 537.88,-310"/>
<text xml:space="preserve" text-anchor="middle" x="522.88" y="-286.4" font-family="Helvetica,sans-Serif" font-weight="bold" font-size="13.00" fill="white">tester</text>
</g>
<!-- config -->
<g id="node5" class="node">
<title>config</title>
<path fill="#f0a500" stroke="black" d="M840.12,-36C840.12,-36 807.62,-36 807.62,-36 801.62,-36 795.62,-30 795.62,-24 795.62,-24 795.62,-12 795.62,-12 795.62,-6 801.62,0 807.62,0 807.62,0 840.12,0 840.12,0 846.12,0 852.12,-6 852.12,-12 852.12,-12 852.12,-24 852.12,-24 852.12,-30 846.12,-36 840.12,-36"/>
<text xml:space="preserve" text-anchor="middle" x="823.88" y="-12.4" font-family="Helvetica,sans-Serif" font-weight="bold" font-size="13.00" fill="white">config</text>
</g>
<!-- tester&#45;&gt;config -->
<g id="edge7" class="edge">
<title>tester&#45;&gt;config</title>
<path fill="none" stroke="black" d="M550.31,-292C622.89,-292 814.46,-292 814.46,-292 814.46,-292 814.46,-47.92 814.46,-47.92"/>
<polygon fill="black" stroke="black" points="817.96,-47.92 814.46,-37.92 810.96,-47.92 817.96,-47.92"/>
<text xml:space="preserve" text-anchor="middle" x="792.42" y="-293.75" font-family="Helvetica,sans-Serif" font-size="10.00">reads</text>
</g>
<!-- domain_model -->
<g id="node6" class="node">
<title>domain_model</title>
<path fill="#5ba8a0" stroke="black" d="M97.75,-36C97.75,-36 12,-36 12,-36 6,-36 0,-30 0,-24 0,-24 0,-12 0,-12 0,-6 6,0 12,0 12,0 97.75,0 97.75,0 103.75,0 109.75,-6 109.75,-12 109.75,-12 109.75,-24 109.75,-24 109.75,-30 103.75,-36 97.75,-36"/>
<text xml:space="preserve" text-anchor="middle" x="54.88" y="-12.4" font-family="Helvetica,sans-Serif" font-weight="bold" font-size="13.00" fill="white">domain_model</text>
</g>
<!-- tester&#45;&gt;domain_model -->
<g id="edge6" class="edge">
<title>tester&#45;&gt;domain_model</title>
<path fill="none" stroke="black" d="M495.69,-301C395.81,-301 54.88,-301 54.88,-301 54.88,-301 54.88,-47.65 54.88,-47.65"/>
<polygon fill="black" stroke="black" points="58.38,-47.65 54.88,-37.65 51.38,-47.65 58.38,-47.65"/>
<text xml:space="preserve" text-anchor="middle" x="128.73" y="-302.75" font-family="Helvetica,sans-Serif" font-size="10.00">produces</text>
</g>
<!-- protocols -->
<g id="node7" class="node">
<title>protocols</title>
<path fill="#5b8cc8" stroke="black" d="M476.62,-36C476.62,-36 423.12,-36 423.12,-36 417.12,-36 411.12,-30 411.12,-24 411.12,-24 411.12,-12 411.12,-12 411.12,-6 417.12,0 423.12,0 423.12,0 476.62,0 476.62,0 482.62,0 488.62,-6 488.62,-12 488.62,-12 488.62,-24 488.62,-24 488.62,-30 482.62,-36 476.62,-36"/>
<text xml:space="preserve" text-anchor="middle" x="449.88" y="-12.4" font-family="Helvetica,sans-Serif" font-weight="bold" font-size="13.00" fill="white">protocols</text>
</g>
<!-- tester&#45;&gt;protocols -->
<g id="edge2" class="edge">
<title>tester&#45;&gt;protocols</title>
<path fill="none" stroke="black" d="M495.44,-283C472.82,-283 444.44,-283 444.44,-283 444.44,-283 444.44,-47.73 444.44,-47.73"/>
<polygon fill="black" stroke="black" points="447.94,-47.73 444.44,-37.73 440.94,-47.73 447.94,-47.73"/>
<text xml:space="preserve" text-anchor="middle" x="433.94" y="-192.62" font-family="Helvetica,sans-Serif" font-size="10.00">uses</text>
</g>
<!-- tool_pool -->
<g id="node8" class="node">
<title>tool_pool</title>
<path fill="#e0960a" stroke="black" d="M664.25,-36C664.25,-36 611.5,-36 611.5,-36 605.5,-36 599.5,-30 599.5,-24 599.5,-24 599.5,-12 599.5,-12 599.5,-6 605.5,0 611.5,0 611.5,0 664.25,0 664.25,0 670.25,0 676.25,-6 676.25,-12 676.25,-12 676.25,-24 676.25,-24 676.25,-30 670.25,-36 664.25,-36"/>
<text xml:space="preserve" text-anchor="middle" x="637.88" y="-12.4" font-family="Helvetica,sans-Serif" font-weight="bold" font-size="13.00" fill="white">tool_pool</text>
</g>
<!-- tester&#45;&gt;tool_pool -->
<g id="edge5" class="edge">
<title>tester&#45;&gt;tool_pool</title>
<path fill="none" stroke="black" d="M550.29,-283C587.84,-283 650.67,-283 650.67,-283 650.67,-283 650.67,-47.73 650.67,-47.73"/>
<polygon fill="black" stroke="black" points="654.17,-47.73 650.67,-37.73 647.17,-47.73 654.17,-47.73"/>
<text xml:space="preserve" text-anchor="middle" x="638.67" y="-217.3" font-family="Helvetica,sans-Serif" font-size="10.00">reads</text>
</g>
<!-- adapters -->
<g id="node9" class="node">
<title>adapters</title>
<path fill="#7dbb7d" stroke="black" d="M992,-173C992,-173 943.75,-173 943.75,-173 937.75,-173 931.75,-167 931.75,-161 931.75,-161 931.75,-149 931.75,-149 931.75,-143 937.75,-137 943.75,-137 943.75,-137 992,-137 992,-137 998,-137 1004,-143 1004,-149 1004,-149 1004,-161 1004,-161 1004,-167 998,-173 992,-173"/>
<text xml:space="preserve" text-anchor="middle" x="967.88" y="-149.4" font-family="Helvetica,sans-Serif" font-weight="bold" font-size="13.00" fill="white">adapters</text>
</g>
<!-- tester&#45;&gt;adapters -->
<g id="edge1" class="edge">
<title>tester&#45;&gt;adapters</title>
<path fill="none" stroke="black" d="M550.04,-301C646.66,-301 967.88,-301 967.88,-301 967.88,-301 967.88,-185 967.88,-185"/>
<polygon fill="black" stroke="black" points="971.38,-185 967.88,-175 964.38,-185 971.38,-185"/>
<text xml:space="preserve" text-anchor="middle" x="827.46" y="-302.75" font-family="Helvetica,sans-Serif" font-size="10.00">uses</text>
</g>
<!-- frameworks -->
<g id="node10" class="node">
<title>frameworks</title>
<path fill="#b05ab0" stroke="black" d="M556,-173C556,-173 489.75,-173 489.75,-173 483.75,-173 477.75,-167 477.75,-161 477.75,-161 477.75,-149 477.75,-149 477.75,-143 483.75,-137 489.75,-137 489.75,-137 556,-137 556,-137 562,-137 568,-143 568,-149 568,-149 568,-161 568,-161 568,-167 562,-173 556,-173"/>
<text xml:space="preserve" text-anchor="middle" x="522.88" y="-149.4" font-family="Helvetica,sans-Serif" font-weight="bold" font-size="13.00" fill="white">frameworks</text>
</g>
<!-- tester&#45;&gt;frameworks -->
<g id="edge3" class="edge">
<title>tester&#45;&gt;frameworks</title>
<path fill="none" stroke="black" d="M522.88,-273.52C522.88,-273.52 522.88,-184.7 522.88,-184.7"/>
<polygon fill="black" stroke="black" points="526.38,-184.7 522.88,-174.7 519.38,-184.7 526.38,-184.7"/>
<text xml:space="preserve" text-anchor="middle" x="512" y="-230.86" font-family="Helvetica,sans-Serif" font-size="10.00">tests</text>
</g>
<!-- benchmark -->
<g id="node11" class="node">
<title>benchmark</title>
<path fill="#a89a20" stroke="black" d="M247.5,-173C247.5,-173 184.25,-173 184.25,-173 178.25,-173 172.25,-167 172.25,-161 172.25,-161 172.25,-149 172.25,-149 172.25,-143 178.25,-137 184.25,-137 184.25,-137 247.5,-137 247.5,-137 253.5,-137 259.5,-143 259.5,-149 259.5,-149 259.5,-161 259.5,-161 259.5,-167 253.5,-173 247.5,-173"/>
<text xml:space="preserve" text-anchor="middle" x="215.88" y="-149.4" font-family="Helvetica,sans-Serif" font-weight="bold" font-size="13.00" fill="white">benchmark</text>
</g>
<!-- tester&#45;&gt;benchmark -->
<g id="edge4" class="edge">
<title>tester&#45;&gt;benchmark</title>
<path fill="none" stroke="black" d="M495.63,-292C420.5,-292 215.88,-292 215.88,-292 215.88,-292 215.88,-184.99 215.88,-184.99"/>
<polygon fill="black" stroke="black" points="219.38,-184.99 215.88,-174.99 212.38,-184.99 219.38,-184.99"/>
<text xml:space="preserve" text-anchor="middle" x="281.25" y="-293.75" font-family="Helvetica,sans-Serif" font-size="10.00">evaluates</text>
</g>
<!-- adapters&#45;&gt;HuggingFaceAPI -->
<g id="edge8" class="edge">
<title>adapters&#45;&gt;HuggingFaceAPI</title>
<path fill="none" stroke="black" stroke-width="2" d="M1004.37,-155C1049.91,-155 1121.88,-155 1121.88,-155 1121.88,-155 1121.88,-47.99 1121.88,-47.99"/>
<polygon fill="black" stroke="black" stroke-width="2" points="1125.38,-49.5 1121.88,-39.5 1118.38,-49.5 1125.38,-49.5"/>
<text xml:space="preserve" text-anchor="middle" x="1078" y="-156.75" font-family="Helvetica,sans-Serif" font-size="10.00">chat_completion()</text>
</g>
<!-- adapters&#45;&gt;OpenAIAPI -->
<g id="edge9" class="edge">
<title>adapters&#45;&gt;OpenAIAPI</title>
<path fill="none" stroke="black" stroke-width="2" d="M979.92,-136.52C979.92,-136.52 979.92,-47.7 979.92,-47.7"/>
<polygon fill="black" stroke="black" stroke-width="2" points="983.42,-49.21 979.92,-39.21 976.42,-49.21 983.42,-49.21"/>
<text xml:space="preserve" text-anchor="middle" x="924.79" y="-93.86" font-family="Helvetica,sans-Serif" font-size="10.00">chat.completions.create()</text>
</g>
<!-- adapters&#45;&gt;config -->
<g id="edge10" class="edge">
<title>adapters&#45;&gt;config</title>
<path fill="none" stroke="black" d="M931.45,-155C891.6,-155 833.29,-155 833.29,-155 833.29,-155 833.29,-47.99 833.29,-47.99"/>
<polygon fill="black" stroke="black" points="836.79,-47.99 833.29,-37.99 829.79,-47.99 836.79,-47.99"/>
<text xml:space="preserve" text-anchor="middle" x="821.29" y="-152.33" font-family="Helvetica,sans-Serif" font-size="10.00">reads</text>
</g>
<!-- frameworks&#45;&gt;protocols -->
<g id="edge13" class="edge">
<title>frameworks&#45;&gt;protocols</title>
<path fill="none" stroke="black" d="M483.19,-136.52C483.19,-136.52 483.19,-47.7 483.19,-47.7"/>
<polygon fill="black" stroke="black" points="486.69,-47.7 483.19,-37.7 479.69,-47.7 486.69,-47.7"/>
<text xml:space="preserve" text-anchor="middle" x="470.06" y="-93.86" font-family="Helvetica,sans-Serif" font-size="10.00">wraps</text>
</g>
<!-- frameworks&#45;&gt;tool_pool -->
<g id="edge12" class="edge">
<title>frameworks&#45;&gt;tool_pool</title>
<path fill="none" stroke="black" d="M568.3,-146C595.6,-146 625.08,-146 625.08,-146 625.08,-146 625.08,-47.85 625.08,-47.85"/>
<polygon fill="black" stroke="black" points="628.58,-47.85 625.08,-37.85 621.58,-47.85 628.58,-47.85"/>
<text xml:space="preserve" text-anchor="middle" x="604.83" y="-127.07" font-family="Helvetica,sans-Serif" font-size="10.00">get_tool()</text>
</g>
<!-- frameworks&#45;&gt;adapters -->
<g id="edge11" class="edge">
<title>frameworks&#45;&gt;adapters</title>
<path fill="none" stroke="black" d="M568.41,-164C568.41,-164 919.8,-164 919.8,-164"/>
<polygon fill="black" stroke="black" points="919.8,-167.5 929.8,-164 919.8,-160.5 919.8,-167.5"/>
<text xml:space="preserve" text-anchor="middle" x="722.35" y="-165.75" font-family="Helvetica,sans-Serif" font-size="10.00">generate()</text>
</g>
<!-- benchmark&#45;&gt;Mind2WebDataset -->
<g id="edge14" class="edge">
<title>benchmark&#45;&gt;Mind2WebDataset</title>
<path fill="none" stroke="black" stroke-width="2" d="M207.67,-136.52C207.67,-136.52 207.67,-47.7 207.67,-47.7"/>
<polygon fill="black" stroke="black" stroke-width="2" points="211.17,-49.21 207.67,-39.21 204.17,-49.21 211.17,-49.21"/>
<text xml:space="preserve" text-anchor="middle" x="176.92" y="-93.86" font-family="Helvetica,sans-Serif" font-size="10.00">load_dataset()</text>
</g>
<!-- benchmark&#45;&gt;adapters -->
<g id="edge15" class="edge">
<title>benchmark&#45;&gt;adapters</title>
<path fill="none" stroke="black" d="M233.58,-136.78C233.58,-116.63 233.58,-87 233.58,-87 233.58,-87 955.83,-87 955.83,-87 955.83,-87 955.83,-125.26 955.83,-125.26"/>
<polygon fill="black" stroke="black" points="952.33,-125.26 955.83,-135.26 959.33,-125.26 952.33,-125.26"/>
<text xml:space="preserve" text-anchor="middle" x="577.33" y="-88.75" font-family="Helvetica,sans-Serif" font-size="10.00">judge</text>
</g>
</g>
</svg>
