<?xml version="1.0" encoding="UTF-8" standalone="no"?>
<!DOCTYPE svg PUBLIC "-//W3C//DTD SVG 1.1//EN"
 "http://www.w3.org/Graphics/SVG/1.1/DTD/svg11.dtd">
<!-- Generated by graphviz version 14.0.1 (20251006.0113)
 -->
<!-- Title: MASTIF_Packages Pages: 1 -->
<svg width="1527pt" height="350pt"
 viewBox="0.00 0.00 1527.00 350.00" xmlns="http://www.w3.org/2000/svg" xmlns:xlink="http://www.w3.org/1999/xlink">
<g id="graph0" class="graph" transform="scale(1 1) rotate(0) translate(4 346.25)">
<title>MASTIF_Packages</title>
<polygon fill="white" stroke="none" points="-4,4 -4,-346.25 1523.38,-346.25 1523.38,4 -4,4"/>
<!-- HuggingFaceAPI -->
<g id="node1" class="node">
<title>HuggingFaceAPI</title>
<polygon fill="#e0e0e0" stroke="black" points="1207.38,-66 1118.62,-66 1118.62,-62 1114.62,-62 1114.62,-58 1118.62,-58 1118.62,-38 1114.62,-38 1114.62,-34 1118.62,-34 1118.62,-30 1207.38,-30 1207.38,-66"/>
<polyline fill="none" stroke="black" points="1118.62,-62 1122.62,-62 1122.62,-58 1118.62,-58"/>
<polyline fill="none" stroke="black" points="1118.62,-38 1122.62,-38 1122.62,-34 1118.62,-34"/>
<text xml:space="preserve" text-anchor="middle" x="1163" y="-49.35" font-family="Helvetica,sans-Serif" font-size="12.00">HuggingFace</text>
<text xml:space="preserve" text-anchor="middle" x="1163" y="-36.6" font-family="Helvetica,sans-Serif" font-size="12.00">Inference API</text>
</g>
<!-- OpenAIAPI -->
<g id="node2" class="node">
<title>OpenAIAPI</title>
<polygon fill="#e0e0e0" stroke="black" points="1358.12,-66 1279.88,-66 1279.88,-62 1275.88,-62 1275.88,-58 1279.88,-58 1279.88,-38 1275.88,-38 1275.88,-34 1279.88,-34 1279.88,-30 1358.12,-30 1358.12,-66"/>
<polyline fill="none" stroke="black" points="1279.88,-62 1283.88,-62 1283.88,-58 1279.88,-58"/>
<polyline fill="none" stroke="black" points="1279.88,-38 1283.88,-38 1283.88,-34 1279.88,-34"/>
<text xml:space="preserve" text-anchor="middle" x="1319" y="-42.98" font-family="Helvetica,sans-Serif" font-size="12.00">OpenAI API</text>
</g>
<!-- AnthropicAPI -->
<g id="node3" class="node">
<title>AnthropicAPI</title>
<polygon fill="#e0e0e0" stroke="black" points="1519.38,-66 1430.62,-66 1430.62,-62 1426.62,-62 1426.62,-58 1430.62,-58 1430.62,-38 1426.62,-38 1426.62,-34 1430.62,-34 1430.62,-30 1519.38,-30 1519.38,-66"/>
<polyline fill="none" stroke="black" points="1430.62,-62 1434.62,-62 1434.62,-58 1430.62,-58"/>
<polyline fill="none" stroke="black" points="1430.62,-38 1434.62,-38 1434.62,-34 1430.62,-34"/>
<text xml:space="preserve" text-anchor="middle" x="1475" y="-42.98" font-family="Helvetica,sans-Serif" font-size="12.00">Anthropic API</text>
</g>
<!-- Mind2WebDataset -->
<g id="node4" class="node">
<title>Mind2WebDataset</title>
<polygon fill="#e0e0e0" stroke="black" points="736.12,-66 651.88,-66 651.88,-62 647.88,-62 647.88,-58 651.88,-58 651.88,-38 647.88,-38 647.88,-34 651.88,-34 651.88,-30 736.12,-30 736.12,-66"/>
<polyline fill="none" stroke="black" points="651.88,-62 655.88,-62 655.88,-58 651.88,-58"/>
<polyline fill="none" stroke="black" points="651.88,-38 655.88,-38 655.88,-34 651.88,-34"/>
<text xml:space="preserve" text-anchor="middle" x="694" y="-49.35" font-family="Helvetica,sans-Serif" font-size="12.00">Mind2Web</text>
<text xml:space="preserve" text-anchor="middle" x="694" y="-36.6" font-family="Helvetica,sans-Serif" font-size="12.00">Dataset (HF)</text>
</g>
<!-- tester -->
<g id="node5" class="node">
<title>tester</title>
<path fill="#4a90d9" stroke="black" d="M581,-340C581,-340 551,-340 551,-340 545,-340 539,-334 539,-328 539,-328 539,-316 539,-316 539,-310 545,-304 551,-304 551,-304 581,-304 581,-304 587,-304 593,-310 593,-316 593,-316 593,-328 593,-328 593,-334 587,-340 581,-340"/>
<text xml:space="preserve" text-anchor="middle" x="566" y="-316.4" font-family="Helvetica,sans-Serif" font-weight="bold" font-size="13.00" fill="white">tester</text>
</g>
<!-- config -->
<g id="node6" class="node">
<title>config</title>
<path fill="#f0a500" stroke="black" d="M1034.25,-66C1034.25,-66 1001.75,-66 1001.75,-66 995.75,-66 989.75,-60 989.75,-54 989.75,-54 989.75,-42 989.75,-42 989.75,-36 995.75,-30 1001.75,-30 1001.75,-30 1034.25,-30 1034.25,-30 1040.25,-30 1046.25,-36 1046.25,-42 1046.25,-42 1046.25,-54 1046.25,-54 1046.25,-60 1040.25,-66 1034.25,-66"/>
<text xml:space="preserve" text-anchor="middle" x="1018" y="-42.4" font-family="Helvetica,sans-Serif" font-weight="bold" font-size="13.00" fill="white">config</text>
</g>
<!-- tester&#45;&gt;config -->
<g id="edge7" class="edge">
<title>tester&#45;&gt;config</title>
<path fill="none" stroke="black" d="M593.35,-322C689.84,-322 1008.58,-322 1008.58,-322 1008.58,-322 1008.58,-77.92 1008.58,-77.92"/>
<polygon fill="black" stroke="black" points="1012.08,-77.92 1008.58,-67.92 1005.08,-77.92 1012.08,-77.92"/>
<text xml:space="preserve" text-anchor="middle" x="911.01" y="-323.75" font-family="Helvetica,sans-Serif" font-size="10.00">reads</text>
</g>
<!-- domain_model -->
<g id="node7" class="node">
<title>domain_model</title>
<path fill="#5ba8a0" stroke="black" d="M905.88,-66C905.88,-66 820.12,-66 820.12,-66 814.12,-66 808.12,-60 808.12,-54 808.12,-54 808.12,-42 808.12,-42 808.12,-36 814.12,-30 820.12,-30 820.12,-30 905.88,-30 905.88,-30 911.88,-30 917.88,-36 917.88,-42 917.88,-42 917.88,-54 917.88,-54 917.88,-60 911.88,-66 905.88,-66"/>
<text xml:space="preserve" text-anchor="middle" x="863" y="-42.4" font-family="Helvetica,sans-Serif" font-weight="bold" font-size="13.00" fill="white">domain_model</text>
</g>
<!-- tester&#45;&gt;domain_model -->
<g id="edge6" class="edge">
<title>tester&#45;&gt;domain_model</title>
<path fill="none" stroke="black" d="M593.41,-313C666.93,-313 863,-313 863,-313 863,-313 863,-77.73 863,-77.73"/>
<polygon fill="black" stroke="black" points="866.5,-77.73 863,-67.73 859.5,-77.73 866.5,-77.73"/>
<text xml:space="preserve" text-anchor="middle" x="825.97" y="-314.75" font-family="Helvetica,sans-Serif" font-size="10.00">produces</text>
</g>
<!-- protocols -->
<g id="node8" class="node">
<title>protocols</title>
<path fill="#5b8cc8" stroke="black" d="M418.75,-66C418.75,-66 365.25,-66 365.25,-66 359.25,-66 353.25,-60 353.25,-54 353.25,-54 353.25,-42 353.25,-42 353.25,-36 359.25,-30 365.25,-30 365.25,-30 418.75,-30 418.75,-30 424.75,-30 430.75,-36 430.75,-42 430.75,-42 430.75,-54 430.75,-54 430.75,-60 424.75,-66 418.75,-66"/>
<text xml:space="preserve" text-anchor="middle" x="392" y="-42.4" font-family="Helvetica,sans-Serif" font-weight="bold" font-size="13.00" fill="white">protocols</text>
</g>
<!-- tester&#45;&gt;protocols -->
<g id="edge2" class="edge">
<title>tester&#45;&gt;protocols</title>
<path fill="none" stroke="black" d="M538.65,-313C482.63,-313 360.06,-313 360.06,-313 360.06,-313 360.06,-77.73 360.06,-77.73"/>
<polygon fill="black" stroke="black" points="363.56,-77.73 360.06,-67.73 356.56,-77.73 363.56,-77.73"/>
<text xml:space="preserve" text-anchor="middle" x="349.56" y="-286.41" font-family="Helvetica,sans-Serif" font-size="10.00">uses</text>
</g>
<!-- tool_pool -->
<g id="node9" class="node">
<title>tool_pool</title>
<path fill="#e0960a" stroke="black" d="M567.38,-66C567.38,-66 514.62,-66 514.62,-66 508.62,-66 502.62,-60 502.62,-54 502.62,-54 502.62,-42 502.62,-42 502.62,-36 508.62,-30 514.62,-30 514.62,-30 567.38,-30 567.38,-30 573.38,-30 579.38,-36 579.38,-42 579.38,-42 579.38,-54 579.38,-54 579.38,-60 573.38,-66 567.38,-66"/>
<text xml:space="preserve" text-anchor="middle" x="541" y="-42.4" font-family="Helvetica,sans-Serif" font-weight="bold" font-size="13.00" fill="white">tool_pool</text>
</g>
<!-- tester&#45;&gt;tool_pool -->
<g id="edge5" class="edge">
<title>tester&#45;&gt;tool_pool</title>
<path fill="none" stroke="black" d="M565.92,-303.6C565.92,-303.6 565.92,-77.84 565.92,-77.84"/>
<polygon fill="black" stroke="black" points="569.42,-77.84 565.92,-67.84 562.42,-77.84 569.42,-77.84"/>
<text xml:space="preserve" text-anchor="middle" x="553.92" y="-192.47" font-family="Helvetica,sans-Serif" font-size="10.00">reads</text>
</g>
<!-- workflow -->
<g id="node10" class="node">
<title>workflow</title>
<path fill="#8a5ba0" stroke="black" d="M269.5,-66C269.5,-66 220.5,-66 220.5,-66 214.5,-66 208.5,-60 208.5,-54 208.5,-54 208.5,-42 208.5,-42 208.5,-36 214.5,-30 220.5,-30 220.5,-30 269.5,-30 269.5,-30 275.5,-30 281.5,-36 281.5,-42 281.5,-42 281.5,-54 281.5,-54 281.5,-60 275.5,-66 269.5,-66"/>
<text xml:space="preserve" text-anchor="middle" x="245" y="-42.4" font-family="Helvetica,sans-Serif" font-weight="bold" font-size="13.00" fill="white">workflow</text>
</g>
<!-- tester&#45;&gt;workflow -->
<g id="edge8" class="edge">
<title>tester&#45;&gt;workflow</title>
<path fill="none" stroke="black" d="M538.74,-322C459.17,-322 232.83,-322 232.83,-322 232.83,-322 232.83,-77.92 232.83,-77.92"/>
<polygon fill="black" stroke="black" points="236.33,-77.92 232.83,-67.92 229.33,-77.92 236.33,-77.92"/>
<text xml:space="preserve" text-anchor="middle" x="253.24" y="-323.75" font-family="Helvetica,sans-Serif" font-size="10.00">uses</text>
</g>
<!-- experiment_logger -->
<g id="node11" class="node">
<title>experiment_logger</title>
<path fill="#c0463a" stroke="black" d="M124,-66C124,-66 12,-66 12,-66 6,-66 0,-60 0,-54 0,-54 0,-42 0,-42 0,-36 6,-30 12,-30 12,-30 124,-30 124,-30 130,-30 136,-36 136,-42 136,-42 136,-54 136,-54 136,-60 130,-66 124,-66"/>
<text xml:space="preserve" text-anchor="middle" x="68" y="-42.4" font-family="Helvetica,sans-Serif" font-weight="bold" font-size="13.00" fill="white">experiment_logger</text>
</g>
<!-- tester&#45;&gt;experiment_logger -->
<g id="edge9" class="edge">
<title>tester&#45;&gt;experiment_logger</title>
<path fill="none" stroke="black" d="M538.52,-331C434.12,-331 68,-331 68,-331 68,-331 68,-77.65 68,-77.65"/>
<polygon fill="black" stroke="black" points="71.5,-77.65 68,-67.65 64.5,-77.65 71.5,-77.65"/>
<text xml:space="preserve" text-anchor="middle" x="138.71" y="-332.75" font-family="Helvetica,sans-Serif" font-size="10.00">delegates logging</text>
</g>
<!-- adapters -->
<g id="node12" class="node">
<title>adapters</title>
<path fill="#7dbb7d" stroke="black" d="M1187.12,-203C1187.12,-203 1138.88,-203 1138.88,-203 1132.88,-203 1126.88,-197 1126.88,-191 1126.88,-191 1126.88,-179 1126.88,-179 1126.88,-173 1132.88,-167 1138.88,-167 1138.88,-167 1187.12,-167 1187.12,-167 1193.12,-167 1199.12,-173 1199.12,-179 1199.12,-179 1199.12,-191 1199.12,-191 1199.12,-197 1193.12,-203 1187.12,-203"/>
<text xml:space="preserve" text-anchor="middle" x="1163" y="-179.4" font-family="Helvetica,sans-Serif" font-weight="bold" font-size="13.00" fill="white">adapters</text>
</g>
<!-- tester&#45;&gt;adapters -->
<g id="edge1" class="edge">
<title>tester&#45;&gt;adapters</title>
<path fill="none" stroke="black" d="M593.2,-331C709.99,-331 1163,-331 1163,-331 1163,-331 1163,-215 1163,-215"/>
<polygon fill="black" stroke="black" points="1166.5,-215 1163,-205 1159.5,-215 1166.5,-215"/>
<text xml:space="preserve" text-anchor="middle" x="946.6" y="-332.75" font-family="Helvetica,sans-Serif" font-size="10.00">uses</text>
</g>
<!-- frameworks -->
<g id="node13" class="node">
<title>frameworks</title>
<path fill="#b05ab0" stroke="black" d="M445.12,-203C445.12,-203 378.88,-203 378.88,-203 372.88,-203 366.88,-197 366.88,-191 366.88,-191 366.88,-179 366.88,-179 366.88,-173 372.88,-167 378.88,-167 378.88,-167 445.12,-167 445.12,-167 451.12,-167 457.12,-173 457.12,-179 457.12,-179 457.12,-191 457.12,-191 457.12,-197 451.12,-203 445.12,-203"/>
<text xml:space="preserve" text-anchor="middle" x="412" y="-179.4" font-family="Helvetica,sans-Serif" font-weight="bold" font-size="13.00" fill="white">frameworks</text>
</g>
<!-- tester&#45;&gt;frameworks -->
<g id="edge3" class="edge">
<title>tester&#45;&gt;frameworks</title>
<path fill="none" stroke="black" d="M552.46,-303.51C552.46,-267.4 552.46,-191 552.46,-191 552.46,-191 469.12,-191 469.12,-191"/>
<polygon fill="black" stroke="black" points="469.12,-187.5 459.12,-191 469.12,-194.5 469.12,-187.5"/>
<text xml:space="preserve" text-anchor="middle" x="541.58" y="-207.33" font-family="Helvetica,sans-Serif" font-size="10.00">tests</text>
</g>
<!-- benchmark -->
<g id="node14" class="node">
<title>benchmark</title>
<path fill="#a89a20" stroke="black" d="M750.62,-203C750.62,-203 687.38,-203 687.38,-203 681.38,-203 675.38,-197 675.38,-191 675.38,-191 675.38,-179 675.38,-179 675.38,-173 681.38,-167 687.38,-167 687.38,-167 750.62,-167 750.62,-167 756.62,-167 762.62,-173 762.62,-179 762.62,-179 762.62,-191 762.62,-191 762.62,-197 756.62,-203 750.62,-203"/>
<text xml:space="preserve" text-anchor="middle" x="719" y="-179.4" font-family="Helvetica,sans-Serif" font-weight="bold" font-size="13.00" fill="white">benchmark</text>
</g>
<!-- tester&#45;&gt;benchmark -->
<g id="edge4" class="edge">
<title>tester&#45;&gt;benchmark</title>
<path fill="none" stroke="black" d="M586.19,-303.6C586.19,-264.98 586.19,-179 586.19,-179 586.19,-179 663.63,-179 663.63,-179"/>
<polygon fill="black" stroke="black" points="663.63,-182.5 673.63,-179 663.63,-175.5 663.63,-182.5"/>
<text xml:space="preserve" text-anchor="middle" x="607.19" y="-204.33" font-family="Helvetica,sans-Serif" font-size="10.00">evaluates</text>
</g>
<!-- workflow&#45;&gt;config -->
<g id="edge18" class="edge">
<title>workflow&#45;&gt;config</title>
<path fill="none" stroke="black" d="M226.75,-29.94C226.75,-18.56 226.75,-6 226.75,-6 226.75,-6 1008.58,-6 1008.58,-6 1008.58,-6 1008.58,-18.43 1008.58,-18.43"/>
<polygon fill="black" stroke="black" points="1005.08,-18.43 1008.58,-28.43 1012.08,-18.43 1005.08,-18.43"/>
<text xml:space="preserve" text-anchor="middle" x="599.91" y="-7.75" font-family="Helvetica,sans-Serif" font-size="10.00">reads</text>
</g>
<!-- workflow&#45;&gt;domain_model -->
<g id="edge20" class="edge">
<title>workflow&#45;&gt;domain_model</title>
<path fill="none" stroke="black" d="M245,-29.51C245,-23.34 245,-18 245,-18 245,-18 844.71,-18 844.71,-18 844.71,-18 844.71,-19.15 844.71,-19.15"/>
<polygon fill="black" stroke="black" points="841.21,-18 844.71,-28 848.21,-18 841.21,-18"/>
<text xml:space="preserve" text-anchor="middle" x="529.17" y="-19.75" font-family="Helvetica,sans-Serif" font-size="10.00">uses</text>
</g>
<!-- workflow&#45;&gt;tool_pool -->
<g id="edge19" class="edge">
<title>workflow&#45;&gt;tool_pool</title>
<path fill="none" stroke="black" d="M263.25,-29.57C263.25,-26.34 263.25,-24 263.25,-24 263.25,-24 541,-24 541,-24 541,-24 541,-24.56 541,-24.56"/>
<polygon fill="black" stroke="black" points="537.5,-18.05 541,-28.05 544.5,-18.05 537.5,-18.05"/>
<text xml:space="preserve" text-anchor="middle" x="359.87" y="-14.5" font-family="Helvetica,sans-Serif" font-size="10.00">invoke() for ReAct</text>
</g>
<!-- experiment_logger&#45;&gt;config -->
<g id="edge22" class="edge">
<title>experiment_logger&#45;&gt;config</title>
<path fill="none" stroke="black" d="M45.33,-29.58C45.33,-16.04 45.33,0 45.33,0 45.33,0 1027.42,0 1027.42,0 1027.42,0 1027.42,-18.07 1027.42,-18.07"/>
<polygon fill="black" stroke="black" points="1023.92,-18.07 1027.42,-28.07 1030.92,-18.07 1023.92,-18.07"/>
<text xml:space="preserve" text-anchor="middle" x="491.62" y="-1.75" font-family="Helvetica,sans-Serif" font-size="10.00">reads (yaml_path)</text>
</g>
<!-- experiment_logger&#45;&gt;domain_model -->
<g id="edge21" class="edge">
<title>experiment_logger&#45;&gt;domain_model</title>
<path fill="none" stroke="black" d="M90.67,-29.58C90.67,-20.72 90.67,-12 90.67,-12 90.67,-12 881.29,-12 881.29,-12 881.29,-12 881.29,-18.06 881.29,-18.06"/>
<polygon fill="black" stroke="black" points="877.79,-18.06 881.29,-28.06 884.79,-18.06 877.79,-18.06"/>
<text xml:space="preserve" text-anchor="middle" x="453.6" y="-13.75" font-family="Helvetica,sans-Serif" font-size="10.00">reads/writes</text>
</g>
<!-- adapters&#45;&gt;HuggingFaceAPI -->
<g id="edge10" class="edge">
<title>adapters&#45;&gt;HuggingFaceAPI</title>
<path fill="none" stroke="black" stroke-width="2" d="M1175.04,-166.52C1175.04,-166.52 1175.04,-77.7 1175.04,-77.7"/>
<polygon fill="black" stroke="black" stroke-width="2" points="1178.54,-79.21 1175.04,-69.21 1171.54,-79.21 1178.54,-79.21"/>
<text xml:space="preserve" text-anchor="middle" x="1136.42" y="-123.86" font-family="Helvetica,sans-Serif" font-size="10.00">chat_completion()</text>
</g>
<!-- adapters&#45;&gt;OpenAIAPI -->
<g id="edge11" class="edge">
<title>adapters&#45;&gt;OpenAIAPI</title>
<path fill="none" stroke="black" stroke-width="2" d="M1199.58,-179C1245.68,-179 1319,-179 1319,-179 1319,-179 1319,-78 1319,-78"/>
<polygon fill="black" stroke="black" stroke-width="2" points="1322.5,-79.52 1319,-69.52 1315.5,-79.52 1322.5,-79.52"/>
<text xml:space="preserve" text-anchor="middle" x="1254.66" y="-180.75" font-family="Helvetica,sans-Serif" font-size="10.00">chat.completions.create()</text>
</g>
<!-- adapters&#45;&gt;AnthropicAPI -->
<g id="edge12" class="edge">
<title>adapters&#45;&gt;AnthropicAPI</title>
<path fill="none" stroke="black" stroke-width="2" d="M1199.4,-191C1281.7,-191 1475,-191 1475,-191 1475,-191 1475,-77.92 1475,-77.92"/>
<polygon fill="black" stroke="black" stroke-width="2" points="1478.5,-79.43 1475,-69.43 1471.5,-79.43 1478.5,-79.43"/>
<text xml:space="preserve" text-anchor="middle" x="1353.24" y="-192.75" font-family="Helvetica,sans-Serif" font-size="10.00">messages.create()</text>
</g>
<!-- adapters&#45;&gt;config -->
<g id="edge13" class="edge">
<title>adapters&#45;&gt;config</title>
<path fill="none" stroke="black" d="M1126.67,-179C1086.5,-179 1027.42,-179 1027.42,-179 1027.42,-179 1027.42,-78 1027.42,-78"/>
<polygon fill="black" stroke="black" points="1030.92,-78 1027.42,-68 1023.92,-78 1030.92,-78"/>
<text xml:space="preserve" text-anchor="middle" x="1015.42" y="-179.88" font-family="Helvetica,sans-Serif" font-size="10.00">reads</text>
</g>
<!-- frameworks&#45;&gt;protocols -->
<g id="edge16" class="edge">
<title>frameworks&#45;&gt;protocols</title>
<path fill="none" stroke="black" d="M398.81,-166.52C398.81,-166.52 398.81,-77.7 398.81,-77.7"/>
<polygon fill="black" stroke="black" points="402.31,-77.7 398.81,-67.7 395.31,-77.7 402.31,-77.7"/>
<text xml:space="preserve" text-anchor="middle" x="385.69" y="-123.86" font-family="Helvetica,sans-Serif" font-size="10.00">wraps</text>
</g>
<!-- frameworks&#45;&gt;tool_pool -->
<g id="edge15" class="edge">
<title>frameworks&#45;&gt;tool_pool</title>
<path fill="none" stroke="black" d="M448.33,-166.52C448.33,-129.13 448.33,-48 448.33,-48 448.33,-48 490.72,-48 490.72,-48"/>
<polygon fill="black" stroke="black" points="490.72,-51.5 500.72,-48 490.72,-44.5 490.72,-51.5"/>
<text xml:space="preserve" text-anchor="middle" x="428.08" y="-87.82" font-family="Helvetica,sans-Serif" font-size="10.00">get_tool()</text>
</g>
<!-- frameworks&#45;&gt;workflow -->
<g id="edge17" class="edge">
<title>frameworks&#45;&gt;workflow</title>
<path fill="none" stroke="black" d="M366.38,-185C320.71,-185 257.17,-185 257.17,-185 257.17,-185 257.17,-77.99 257.17,-77.99"/>
<polygon fill="black" stroke="black" points="260.67,-77.99 257.17,-67.99 253.67,-77.99 260.67,-77.99"/>
<text xml:space="preserve" text-anchor="middle" x="217.02" y="-186.75" font-family="Helvetica,sans-Serif" font-size="10.00">WorkflowController</text>
</g>
<!-- frameworks&#45;&gt;adapters -->
<g id="edge14" class="edge">
<title>frameworks&#45;&gt;adapters</title>
<path fill="none" stroke="black" d="M439.54,-166.78C439.54,-146.63 439.54,-117 439.54,-117 439.54,-117 1150.96,-117 1150.96,-117 1150.96,-117 1150.96,-155.26 1150.96,-155.26"/>
<polygon fill="black" stroke="black" points="1147.46,-155.26 1150.96,-165.26 1154.46,-155.26 1147.46,-155.26"/>
<text xml:space="preserve" text-anchor="middle" x="767.74" y="-118.75" font-family="Helvetica,sans-Serif" font-size="10.00">generate()</text>
</g>
<!-- benchmark&#45;&gt;Mind2WebDataset -->
<g id="edge23" class="edge">
<title>benchmark&#45;&gt;Mind2WebDataset</title>
<path fill="none" stroke="black" stroke-width="2" d="M705.75,-166.52C705.75,-166.52 705.75,-77.7 705.75,-77.7"/>
<polygon fill="black" stroke="black" stroke-width="2" points="709.25,-79.21 705.75,-69.21 702.25,-79.21 709.25,-79.21"/>
<text xml:space="preserve" text-anchor="middle" x="675" y="-123.86" font-family="Helvetica,sans-Serif" font-size="10.00">load_dataset()</text>
</g>
<!-- benchmark&#45;&gt;adapters -->
<g id="edge24" class="edge">
<title>benchmark&#45;&gt;adapters</title>
<path fill="none" stroke="black" d="M762.79,-191C762.79,-191 1114.98,-191 1114.98,-191"/>
<polygon fill="black" stroke="black" points="1114.98,-194.5 1124.98,-191 1114.98,-187.5 1114.98,-194.5"/>
<text xml:space="preserve" text-anchor="middle" x="927.26" y="-192.75" font-family="Helvetica,sans-Serif" font-size="10.00">judge</text>
</g>
</g>
</svg>
