<?xml version="1.0" encoding="UTF-8" standalone="no"?>
<!DOCTYPE svg PUBLIC "-//W3C//DTD SVG 1.1//EN"
 "http://www.w3.org/Graphics/SVG/1.1/DTD/svg11.dtd">
<!-- Generated by graphviz version 14.0.1 (20251006.0113)
 -->
<!-- Title: MASTIF_Packages Pages: 1 -->
<svg width="1162pt" height="455pt"
 viewBox="0.00 0.00 1162.00 455.00" xmlns="http://www.w3.org/2000/svg" xmlns:xlink="http://www.w3.org/1999/xlink">
<g id="graph0" class="graph" transform="scale(1 1) rotate(0) translate(4 451)">
<title>MASTIF_Packages</title>
<polygon fill="white" stroke="none" points="-4,4 -4,-451 1158.12,-451 1158.12,4 -4,4"/>
<!-- HuggingFaceAPI -->
<g id="node1" class="node">
<title>HuggingFaceAPI</title>
<polygon fill="#e0e0e0" stroke="black" points="842.12,-447 753.38,-447 753.38,-443 749.38,-443 749.38,-439 753.38,-439 753.38,-419 749.38,-419 749.38,-415 753.38,-415 753.38,-411 842.12,-411 842.12,-447"/>
<polyline fill="none" stroke="black" points="753.38,-443 757.38,-443 757.38,-439 753.38,-439"/>
<polyline fill="none" stroke="black" points="753.38,-419 757.38,-419 757.38,-415 753.38,-415"/>
<text xml:space="preserve" text-anchor="middle" x="797.75" y="-430.35" font-family="Helvetica,sans-Serif" font-size="12.00">HuggingFace</text>
<text xml:space="preserve" text-anchor="middle" x="797.75" y="-417.6" font-family="Helvetica,sans-Serif" font-size="12.00">Inference API</text>
</g>
<!-- OpenAIAPI -->
<g id="node2" class="node">
<title>OpenAIAPI</title>
<polygon fill="#e0e0e0" stroke="black" points="992.88,-447 914.62,-447 914.62,-443 910.62,-443 910.62,-439 914.62,-439 914.62,-419 910.62,-419 910.62,-415 914.62,-415 914.62,-411 992.88,-411 992.88,-447"/>
<polyline fill="none" stroke="black" points="914.62,-443 918.62,-443 918.62,-439 914.62,-439"/>
<polyline fill="none" stroke="black" points="914.62,-419 918.62,-419 918.62,-415 914.62,-415"/>
<text xml:space="preserve" text-anchor="middle" x="953.75" y="-423.98" font-family="Helvetica,sans-Serif" font-size="12.00">OpenAI API</text>
</g>
<!-- AnthropicAPI -->
<g id="node3" class="node">
<title>AnthropicAPI</title>
<polygon fill="#e0e0e0" stroke="black" points="1154.12,-447 1065.38,-447 1065.38,-443 1061.38,-443 1061.38,-439 1065.38,-439 1065.38,-419 1061.38,-419 1061.38,-415 1065.38,-415 1065.38,-411 1154.12,-411 1154.12,-447"/>
<polyline fill="none" stroke="black" points="1065.38,-443 1069.38,-443 1069.38,-439 1065.38,-439"/>
<polyline fill="none" stroke="black" points="1065.38,-419 1069.38,-419 1069.38,-415 1065.38,-415"/>
<text xml:space="preserve" text-anchor="middle" x="1109.75" y="-423.98" font-family="Helvetica,sans-Serif" font-size="12.00">Anthropic API</text>
</g>
<!-- Mind2WebDataset -->
<g id="node4" class="node">
<title>Mind2WebDataset</title>
<polygon fill="#e0e0e0" stroke="black" points="574.88,-447 490.62,-447 490.62,-443 486.62,-443 486.62,-439 490.62,-439 490.62,-419 486.62,-419 486.62,-415 490.62,-415 490.62,-411 574.88,-411 574.88,-447"/>
<polyline fill="none" stroke="black" points="490.62,-443 494.62,-443 494.62,-439 490.62,-439"/>
<polyline fill="none" stroke="black" points="490.62,-419 494.62,-419 494.62,-415 490.62,-415"/>
<text xml:space="preserve" text-anchor="middle" x="532.75" y="-430.35" font-family="Helvetica,sans-Serif" font-size="12.00">Mind2Web</text>
<text xml:space="preserve" text-anchor="middle" x="532.75" y="-417.6" font-family="Helvetica,sans-Serif" font-size="12.00">Dataset (HF)</text>
</g>
<!-- tester -->
<g id="node5" class="node">
<title>tester</title>
<path fill="#4a90d9" stroke="black" d="M494.75,-36C494.75,-36 464.75,-36 464.75,-36 458.75,-36 452.75,-30 452.75,-24 452.75,-24 452.75,-12 452.75,-12 452.75,-6 458.75,0 464.75,0 464.75,0 494.75,0 494.75,0 500.75,0 506.75,-6 506.75,-12 506.75,-12 506.75,-24 506.75,-24 506.75,-30 500.75,-36 494.75,-36"/>
<text xml:space="preserve" text-anchor="middle" x="479.75" y="-12.4" font-family="Helvetica,sans-Serif" font-weight="bold" font-size="13.00" fill="white">tester</text>
</g>
<!-- config -->
<g id="node6" class="node">
<title>config</title>
<path fill="#f0a500" stroke="black" d="M1023,-173C1023,-173 990.5,-173 990.5,-173 984.5,-173 978.5,-167 978.5,-161 978.5,-161 978.5,-149 978.5,-149 978.5,-143 984.5,-137 990.5,-137 990.5,-137 1023,-137 1023,-137 1029,-137 1035,-143 1035,-149 1035,-149 1035,-161 1035,-161 1035,-167 1029,-173 1023,-173"/>
<text xml:space="preserve" text-anchor="middle" x="1006.75" y="-149.4" font-family="Helvetica,sans-Serif" font-weight="bold" font-size="13.00" fill="white">config</text>
</g>
<!-- tester&#45;&gt;config -->
<g id="edge7" class="edge">
<title>tester&#45;&gt;config</title>
<path fill="none" stroke="black" d="M506.97,-9C614.89,-9 1006.75,-9 1006.75,-9 1006.75,-9 1006.75,-125 1006.75,-125"/>
<polygon fill="black" stroke="black" points="1003.25,-125 1006.75,-135 1010.25,-125 1003.25,-125"/>
<text xml:space="preserve" text-anchor="middle" x="802.86" y="-10.75" font-family="Helvetica,sans-Serif" font-size="10.00">reads</text>
</g>
<!-- domain_model -->
<g id="node7" class="node">
<title>domain_model</title>
<path fill="#5ba8a0" stroke="black" d="M894.62,-173C894.62,-173 808.88,-173 808.88,-173 802.88,-173 796.88,-167 796.88,-161 796.88,-161 796.88,-149 796.88,-149 796.88,-143 802.88,-137 808.88,-137 808.88,-137 894.62,-137 894.62,-137 900.62,-137 906.62,-143 906.62,-149 906.62,-149 906.62,-161 906.62,-161 906.62,-167 900.62,-173 894.62,-173"/>
<text xml:space="preserve" text-anchor="middle" x="851.75" y="-149.4" font-family="Helvetica,sans-Serif" font-weight="bold" font-size="13.00" fill="white">domain_model</text>
</g>
<!-- tester&#45;&gt;domain_model -->
<g id="edge6" class="edge">
<title>tester&#45;&gt;domain_model</title>
<path fill="none" stroke="black" d="M507.1,-27C593.01,-27 851.75,-27 851.75,-27 851.75,-27 851.75,-125.15 851.75,-125.15"/>
<polygon fill="black" stroke="black" points="848.25,-125.15 851.75,-135.15 855.25,-125.15 848.25,-125.15"/>
<text xml:space="preserve" text-anchor="middle" x="708.63" y="-28.75" font-family="Helvetica,sans-Serif" font-size="10.00">produces</text>
</g>
<!-- protocols -->
<g id="node8" class="node">
<title>protocols</title>
<path fill="#5b8cc8" stroke="black" d="M65.5,-173C65.5,-173 12,-173 12,-173 6,-173 0,-167 0,-161 0,-161 0,-149 0,-149 0,-143 6,-137 12,-137 12,-137 65.5,-137 65.5,-137 71.5,-137 77.5,-143 77.5,-149 77.5,-149 77.5,-161 77.5,-161 77.5,-167 71.5,-173 65.5,-173"/>
<text xml:space="preserve" text-anchor="middle" x="38.75" y="-149.4" font-family="Helvetica,sans-Serif" font-weight="bold" font-size="13.00" fill="white">protocols</text>
</g>
<!-- tester&#45;&gt;protocols -->
<g id="edge2" class="edge">
<title>tester&#45;&gt;protocols</title>
<path fill="none" stroke="black" d="M452.5,-9C356.35,-9 38.75,-9 38.75,-9 38.75,-9 38.75,-125 38.75,-125"/>
<polygon fill="black" stroke="black" points="35.25,-125 38.75,-135 42.25,-125 35.25,-125"/>
<text xml:space="preserve" text-anchor="middle" x="177.13" y="-10.75" font-family="Helvetica,sans-Serif" font-size="10.00">uses</text>
</g>
<!-- tool_pool -->
<g id="node9" class="node">
<title>tool_pool</title>
<path fill="#e0960a" stroke="black" d="M359.12,-173C359.12,-173 306.38,-173 306.38,-173 300.38,-173 294.38,-167 294.38,-161 294.38,-161 294.38,-149 294.38,-149 294.38,-143 300.38,-137 306.38,-137 306.38,-137 359.12,-137 359.12,-137 365.12,-137 371.12,-143 371.12,-149 371.12,-149 371.12,-161 371.12,-161 371.12,-167 365.12,-173 359.12,-173"/>
<text xml:space="preserve" text-anchor="middle" x="332.75" y="-149.4" font-family="Helvetica,sans-Serif" font-weight="bold" font-size="13.00" fill="white">tool_pool</text>
</g>
<!-- tester&#45;&gt;tool_pool -->
<g id="edge5" class="edge">
<title>tester&#45;&gt;tool_pool</title>
<path fill="none" stroke="black" d="M470.94,-36.49C470.94,-72.6 470.94,-149 470.94,-149 470.94,-149 383.12,-149 383.12,-149"/>
<polygon fill="black" stroke="black" points="383.12,-145.5 373.12,-149 383.12,-152.5 383.12,-145.5"/>
<text xml:space="preserve" text-anchor="middle" x="458.94" y="-138.4" font-family="Helvetica,sans-Serif" font-size="10.00">reads</text>
</g>
<!-- workflow -->
<g id="node10" class="node">
<title>workflow</title>
<path fill="#8a5ba0" stroke="black" d="M210.25,-173C210.25,-173 161.25,-173 161.25,-173 155.25,-173 149.25,-167 149.25,-161 149.25,-161 149.25,-149 149.25,-149 149.25,-143 155.25,-137 161.25,-137 161.25,-137 210.25,-137 210.25,-137 216.25,-137 222.25,-143 222.25,-149 222.25,-149 222.25,-161 222.25,-161 222.25,-167 216.25,-173 210.25,-173"/>
<text xml:space="preserve" text-anchor="middle" x="185.75" y="-149.4" font-family="Helvetica,sans-Serif" font-weight="bold" font-size="13.00" fill="white">workflow</text>
</g>
<!-- tester&#45;&gt;workflow -->
<g id="edge8" class="edge">
<title>tester&#45;&gt;workflow</title>
<path fill="none" stroke="black" d="M452.36,-18C379.37,-18 185.75,-18 185.75,-18 185.75,-18 185.75,-125.01 185.75,-125.01"/>
<polygon fill="black" stroke="black" points="182.25,-125.01 185.75,-135.01 189.25,-125.01 182.25,-125.01"/>
<text xml:space="preserve" text-anchor="middle" x="255.05" y="-19.75" font-family="Helvetica,sans-Serif" font-size="10.00">uses</text>
</g>
<!-- experiment_logger -->
<g id="node11" class="node">
<title>experiment_logger</title>
<path fill="#c0463a" stroke="black" d="M712.75,-173C712.75,-173 600.75,-173 600.75,-173 594.75,-173 588.75,-167 588.75,-161 588.75,-161 588.75,-149 588.75,-149 588.75,-143 594.75,-137 600.75,-137 600.75,-137 712.75,-137 712.75,-137 718.75,-137 724.75,-143 724.75,-149 724.75,-149 724.75,-161 724.75,-161 724.75,-167 718.75,-173 712.75,-173"/>
<text xml:space="preserve" text-anchor="middle" x="656.75" y="-149.4" font-family="Helvetica,sans-Serif" font-weight="bold" font-size="13.00" fill="white">experiment_logger</text>
</g>
<!-- tester&#45;&gt;experiment_logger -->
<g id="edge9" class="edge">
<title>tester&#45;&gt;experiment_logger</title>
<path fill="none" stroke="black" d="M500.88,-36.4C500.88,-75.02 500.88,-161 500.88,-161 500.88,-161 576.87,-161 576.87,-161"/>
<polygon fill="black" stroke="black" points="576.87,-164.5 586.87,-161 576.87,-157.5 576.87,-164.5"/>
<text xml:space="preserve" text-anchor="middle" x="538.75" y="-138.45" font-family="Helvetica,sans-Serif" font-size="10.00">delegates logging</text>
</g>
<!-- adapters -->
<g id="node12" class="node">
<title>adapters</title>
<path fill="#7dbb7d" stroke="black" d="M977.88,-310C977.88,-310 929.62,-310 929.62,-310 923.62,-310 917.62,-304 917.62,-298 917.62,-298 917.62,-286 917.62,-286 917.62,-280 923.62,-274 929.62,-274 929.62,-274 977.88,-274 977.88,-274 983.88,-274 989.88,-280 989.88,-286 989.88,-286 989.88,-298 989.88,-298 989.88,-304 983.88,-310 977.88,-310"/>
<text xml:space="preserve" text-anchor="middle" x="953.75" y="-286.4" font-family="Helvetica,sans-Serif" font-weight="bold" font-size="13.00" fill="white">adapters</text>
</g>
<!-- tester&#45;&gt;adapters -->
<g id="edge1" class="edge">
<title>tester&#45;&gt;adapters</title>
<path fill="none" stroke="black" d="M507.19,-18C608.86,-18 958.21,-18 958.21,-18 958.21,-18 958.21,-262.08 958.21,-262.08"/>
<polygon fill="black" stroke="black" points="954.71,-262.08 958.21,-272.08 961.71,-262.08 954.71,-262.08"/>
<text xml:space="preserve" text-anchor="middle" x="844.24" y="-19.75" font-family="Helvetica,sans-Serif" font-size="10.00">uses</text>
</g>
<!-- frameworks -->
<g id="node13" class="node">
<title>frameworks</title>
<path fill="#b05ab0" stroke="black" d="M218.88,-310C218.88,-310 152.62,-310 152.62,-310 146.62,-310 140.62,-304 140.62,-298 140.62,-298 140.62,-286 140.62,-286 140.62,-280 146.62,-274 152.62,-274 152.62,-274 218.88,-274 218.88,-274 224.88,-274 230.88,-280 230.88,-286 230.88,-286 230.88,-298 230.88,-298 230.88,-304 224.88,-310 218.88,-310"/>
<text xml:space="preserve" text-anchor="middle" x="185.75" y="-286.4" font-family="Helvetica,sans-Serif" font-weight="bold" font-size="13.00" fill="white">frameworks</text>
</g>
<!-- tester&#45;&gt;frameworks -->
<g id="edge3" class="edge">
<title>tester&#45;&gt;frameworks</title>
<path fill="none" stroke="black" d="M452.5,-27C386.81,-27 225.12,-27 225.12,-27 225.12,-27 225.12,-262.27 225.12,-262.27"/>
<polygon fill="black" stroke="black" points="221.63,-262.27 225.13,-272.27 228.63,-262.27 221.63,-262.27"/>
<text xml:space="preserve" text-anchor="middle" x="214.25" y="-32.7" font-family="Helvetica,sans-Serif" font-size="10.00">tests</text>
</g>
<!-- benchmark -->
<g id="node14" class="node">
<title>benchmark</title>
<path fill="#a89a20" stroke="black" d="M564.38,-310C564.38,-310 501.12,-310 501.12,-310 495.12,-310 489.12,-304 489.12,-298 489.12,-298 489.12,-286 489.12,-286 489.12,-280 495.12,-274 501.12,-274 501.12,-274 564.38,-274 564.38,-274 570.38,-274 576.38,-280 576.38,-286 576.38,-286 576.38,-298 576.38,-298 576.38,-304 570.38,-310 564.38,-310"/>
<text xml:space="preserve" text-anchor="middle" x="532.75" y="-286.4" font-family="Helvetica,sans-Serif" font-weight="bold" font-size="13.00" fill="white">benchmark</text>
</g>
<!-- tester&#45;&gt;benchmark -->
<g id="edge4" class="edge">
<title>tester&#45;&gt;benchmark</title>
<path fill="none" stroke="black" d="M495,-36.4C495,-36.4 495,-262.16 495,-262.16"/>
<polygon fill="black" stroke="black" points="491.5,-262.16 495,-272.16 498.5,-262.16 491.5,-262.16"/>
<text xml:space="preserve" text-anchor="middle" x="474" y="-151.03" font-family="Helvetica,sans-Serif" font-size="10.00">evaluates</text>
</g>
<!-- workflow&#45;&gt;config -->
<g id="edge18" class="edge">
<title>workflow&#45;&gt;config</title>
<path fill="none" stroke="black" d="M178.45,-173.32C178.45,-196.66 178.45,-234 178.45,-234 178.45,-234 984.19,-234 984.19,-234 984.19,-234 984.19,-184.84 984.19,-184.84"/>
<polygon fill="black" stroke="black" points="987.69,-184.84 984.19,-174.84 980.69,-184.84 987.69,-184.84"/>
<text xml:space="preserve" text-anchor="middle" x="563.56" y="-235.75" font-family="Helvetica,sans-Serif" font-size="10.00">reads</text>
</g>
<!-- workflow&#45;&gt;domain_model -->
<g id="edge20" class="edge">
<title>workflow&#45;&gt;domain_model</title>
<path fill="none" stroke="black" d="M193.05,-173.35C193.05,-190.34 193.05,-213 193.05,-213 193.05,-213 811.96,-213 811.96,-213 811.96,-213 811.96,-184.87 811.96,-184.87"/>
<polygon fill="black" stroke="black" points="815.46,-184.87 811.96,-174.87 808.46,-184.87 815.46,-184.87"/>
<text xml:space="preserve" text-anchor="middle" x="486.25" y="-214.75" font-family="Helvetica,sans-Serif" font-size="10.00">uses</text>
</g>
<!-- workflow&#45;&gt;tool_pool -->
<g id="edge19" class="edge">
<title>workflow&#45;&gt;tool_pool</title>
<path fill="none" stroke="black" d="M222.47,-149C222.47,-149 282.42,-149 282.42,-149"/>
<polygon fill="black" stroke="black" points="282.42,-152.5 292.42,-149 282.42,-145.5 282.42,-152.5"/>
<text xml:space="preserve" text-anchor="middle" x="252.44" y="-139.5" font-family="Helvetica,sans-Serif" font-size="10.00">invoke() for ReAct</text>
</g>
<!-- experiment_logger&#45;&gt;config -->
<g id="edge22" class="edge">
<title>experiment_logger&#45;&gt;config</title>
<path fill="none" stroke="black" d="M656.75,-173.11C656.75,-182.9 656.75,-193 656.75,-193 656.75,-193 981.34,-193 981.34,-193 981.34,-193 981.34,-184.62 981.34,-184.62"/>
<polygon fill="black" stroke="black" points="984.84,-184.62 981.34,-174.62 977.84,-184.62 984.84,-184.62"/>
<text xml:space="preserve" text-anchor="middle" x="774.29" y="-194.75" font-family="Helvetica,sans-Serif" font-size="10.00">reads (yaml_path)</text>
</g>
<!-- experiment_logger&#45;&gt;domain_model -->
<g id="edge21" class="edge">
<title>experiment_logger&#45;&gt;domain_model</title>
<path fill="none" stroke="black" d="M725.23,-155C725.23,-155 785.1,-155 785.1,-155"/>
<polygon fill="black" stroke="black" points="785.1,-158.5 795.1,-155 785.1,-151.5 785.1,-158.5"/>
<text xml:space="preserve" text-anchor="middle" x="768.48" y="-145.5" font-family="Helvetica,sans-Serif" font-size="10.00">reads/writes</text>
</g>
<!-- adapters&#45;&gt;HuggingFaceAPI -->
<g id="edge10" class="edge">
<title>adapters&#45;&gt;HuggingFaceAPI</title>
<path fill="none" stroke="black" d="M917.44,-298C880,-298 827.04,-298 827.04,-298 827.04,-298 827.04,-399 827.04,-399"/>
<polygon fill="black" stroke="black" points="823.54,-399 827.04,-409 830.54,-399 823.54,-399"/>
<text xml:space="preserve" text-anchor="middle" x="788.42" y="-305.05" font-family="Helvetica,sans-Serif" font-size="10.00">chat_completion()</text>
</g>
<!-- adapters&#45;&gt;OpenAIAPI -->
<g id="edge11" class="edge">
<title>adapters&#45;&gt;OpenAIAPI</title>
<path fill="none" stroke="black" d="M953.75,-310.48C953.75,-310.48 953.75,-399.3 953.75,-399.3"/>
<polygon fill="black" stroke="black" points="950.25,-399.3 953.75,-409.3 957.25,-399.3 950.25,-399.3"/>
<text xml:space="preserve" text-anchor="middle" x="898.62" y="-356.64" font-family="Helvetica,sans-Serif" font-size="10.00">chat.completions.create()</text>
</g>
<!-- adapters&#45;&gt;AnthropicAPI -->
<g id="edge12" class="edge">
<title>adapters&#45;&gt;AnthropicAPI</title>
<path fill="none" stroke="black" d="M990.33,-292C1036.43,-292 1109.75,-292 1109.75,-292 1109.75,-292 1109.75,-399.01 1109.75,-399.01"/>
<polygon fill="black" stroke="black" points="1106.25,-399.01 1109.75,-409.01 1113.25,-399.01 1106.25,-399.01"/>
<text xml:space="preserve" text-anchor="middle" x="1063.04" y="-293.75" font-family="Helvetica,sans-Serif" font-size="10.00">messages.create()</text>
</g>
<!-- adapters&#45;&gt;config -->
<g id="edge13" class="edge">
<title>adapters&#45;&gt;config</title>
<path fill="none" stroke="black" d="M987.03,-273.52C987.03,-273.52 987.03,-184.7 987.03,-184.7"/>
<polygon fill="black" stroke="black" points="990.53,-184.7 987.03,-174.7 983.53,-184.7 990.53,-184.7"/>
<text xml:space="preserve" text-anchor="middle" x="975.03" y="-230.86" font-family="Helvetica,sans-Serif" font-size="10.00">reads</text>
</g>
<!-- frameworks&#45;&gt;protocols -->
<g id="edge16" class="edge">
<title>frameworks&#45;&gt;protocols</title>
<path fill="none" stroke="black" d="M144.94,-273.52C144.94,-236.13 144.94,-155 144.94,-155 144.94,-155 89.5,-155 89.5,-155"/>
<polygon fill="black" stroke="black" points="89.5,-151.5 79.5,-155 89.5,-158.5 89.5,-151.5"/>
<text xml:space="preserve" text-anchor="middle" x="131.81" y="-188.29" font-family="Helvetica,sans-Serif" font-size="10.00">wraps</text>
</g>
<!-- frameworks&#45;&gt;tool_pool -->
<g id="edge15" class="edge">
<title>frameworks&#45;&gt;tool_pool</title>
<path fill="none" stroke="black" d="M228,-273.51C228,-237.4 228,-161 228,-161 228,-161 282.53,-161 282.53,-161"/>
<polygon fill="black" stroke="black" points="282.53,-164.5 292.53,-161 282.53,-157.5 282.53,-164.5"/>
<text xml:space="preserve" text-anchor="middle" x="207.75" y="-191.74" font-family="Helvetica,sans-Serif" font-size="10.00">get_tool()</text>
</g>
<!-- frameworks&#45;&gt;workflow -->
<g id="edge17" class="edge">
<title>frameworks&#45;&gt;workflow</title>
<path fill="none" stroke="black" d="M163.85,-273.52C163.85,-273.52 163.85,-184.7 163.85,-184.7"/>
<polygon fill="black" stroke="black" points="167.35,-184.7 163.85,-174.7 160.35,-184.7 167.35,-184.7"/>
<text xml:space="preserve" text-anchor="middle" x="122.6" y="-230.86" font-family="Helvetica,sans-Serif" font-size="10.00">WorkflowController</text>
</g>
<!-- frameworks&#45;&gt;adapters -->
<g id="edge14" class="edge">
<title>frameworks&#45;&gt;adapters</title>
<path fill="none" stroke="black" d="M207.65,-273.89C207.65,-264.1 207.65,-254 207.65,-254 207.65,-254 937.92,-254 937.92,-254 937.92,-254 937.92,-262.38 937.92,-262.38"/>
<polygon fill="black" stroke="black" points="934.42,-262.38 937.92,-272.38 941.42,-262.38 934.42,-262.38"/>
<text xml:space="preserve" text-anchor="middle" x="545.28" y="-255.75" font-family="Helvetica,sans-Serif" font-size="10.00">generate()</text>
</g>
<!-- benchmark&#45;&gt;Mind2WebDataset -->
<g id="edge23" class="edge">
<title>benchmark&#45;&gt;Mind2WebDataset</title>
<path fill="none" stroke="black" d="M532.75,-310.48C532.75,-310.48 532.75,-399.3 532.75,-399.3"/>
<polygon fill="black" stroke="black" points="529.25,-399.3 532.75,-409.3 536.25,-399.3 529.25,-399.3"/>
<text xml:space="preserve" text-anchor="middle" x="502" y="-356.64" font-family="Helvetica,sans-Serif" font-size="10.00">load_dataset()</text>
</g>
<!-- benchmark&#45;&gt;adapters -->
<g id="edge24" class="edge">
<title>benchmark&#45;&gt;adapters</title>
<path fill="none" stroke="black" d="M576.61,-286C576.61,-286 905.78,-286 905.78,-286"/>
<polygon fill="black" stroke="black" points="905.78,-289.5 915.78,-286 905.78,-282.5 905.78,-289.5"/>
<text xml:space="preserve" text-anchor="middle" x="729.57" y="-287.75" font-family="Helvetica,sans-Serif" font-size="10.00">judge</text>
</g>
</g>
</svg>
