<?xml version="1.0" encoding="UTF-8" standalone="no"?>
<!DOCTYPE svg PUBLIC "-//W3C//DTD SVG 1.1//EN"
 "http://www.w3.org/Graphics/SVG/1.1/DTD/svg11.dtd">
<!-- Generated by graphviz version 14.0.1 (20251006.0113)
 -->
<!-- Title: MASTIF_Packages Pages: 1 -->
<svg width="1371pt" height="351pt"
 viewBox="0.00 0.00 1371.00 351.00" xmlns="http://www.w3.org/2000/svg" xmlns:xlink="http://www.w3.org/1999/xlink">
<g id="graph0" class="graph" transform="scale(1 1) rotate(0) translate(4 347.25)">
<title>MASTIF_Packages</title>
<polygon fill="white" stroke="none" points="-4,4 -4,-347.25 1367.1,-347.25 1367.1,4 -4,4"/>
<!-- HuggingFaceAPI -->
<g id="node1" class="node">
<title>HuggingFaceAPI</title>
<polygon fill="#e0e0e0" stroke="black" points="1363.1,-65 1274.35,-65 1274.35,-61 1270.35,-61 1270.35,-57 1274.35,-57 1274.35,-37 1270.35,-37 1270.35,-33 1274.35,-33 1274.35,-29 1363.1,-29 1363.1,-65"/>
<polyline fill="none" stroke="black" points="1274.35,-61 1278.35,-61 1278.35,-57 1274.35,-57"/>
<polyline fill="none" stroke="black" points="1274.35,-37 1278.35,-37 1278.35,-33 1274.35,-33"/>
<text xml:space="preserve" text-anchor="middle" x="1318.73" y="-48.35" font-family="Helvetica,sans-Serif" font-size="12.00">HuggingFace</text>
<text xml:space="preserve" text-anchor="middle" x="1318.73" y="-35.6" font-family="Helvetica,sans-Serif" font-size="12.00">Inference API</text>
</g>
<!-- OpenAIAPI -->
<g id="node2" class="node">
<title>OpenAIAPI</title>
<polygon fill="#e0e0e0" stroke="black" points="1201.85,-65 1123.6,-65 1123.6,-61 1119.6,-61 1119.6,-57 1123.6,-57 1123.6,-37 1119.6,-37 1119.6,-33 1123.6,-33 1123.6,-29 1201.85,-29 1201.85,-65"/>
<polyline fill="none" stroke="black" points="1123.6,-61 1127.6,-61 1127.6,-57 1123.6,-57"/>
<polyline fill="none" stroke="black" points="1123.6,-37 1127.6,-37 1127.6,-33 1123.6,-33"/>
<text xml:space="preserve" text-anchor="middle" x="1162.73" y="-41.98" font-family="Helvetica,sans-Serif" font-size="12.00">OpenAI API</text>
</g>
<!-- Mind2WebDataset -->
<g id="node3" class="node">
<title>Mind2WebDataset</title>
<polygon fill="#e0e0e0" stroke="black" points="533.85,-65 449.6,-65 449.6,-61 445.6,-61 445.6,-57 449.6,-57 449.6,-37 445.6,-37 445.6,-33 449.6,-33 449.6,-29 533.85,-29 533.85,-65"/>
<polyline fill="none" stroke="black" points="449.6,-61 453.6,-61 453.6,-57 449.6,-57"/>
<polyline fill="none" stroke="black" points="449.6,-37 453.6,-37 453.6,-33 449.6,-33"/>
<text xml:space="preserve" text-anchor="middle" x="491.73" y="-48.35" font-family="Helvetica,sans-Serif" font-size="12.00">Mind2Web</text>
<text xml:space="preserve" text-anchor="middle" x="491.73" y="-35.6" font-family="Helvetica,sans-Serif" font-size="12.00">Dataset (HF)</text>
</g>
<!-- tester -->
<g id="node4" class="node">
<title>tester</title>
<path fill="#4a90d9" stroke="black" d="M584.73,-339C584.73,-339 554.73,-339 554.73,-339 548.73,-339 542.73,-333 542.73,-327 542.73,-327 542.73,-315 542.73,-315 542.73,-309 548.73,-303 554.73,-303 554.73,-303 584.73,-303 584.73,-303 590.73,-303 596.73,-309 596.73,-315 596.73,-315 596.73,-327 596.73,-327 596.73,-333 590.73,-339 584.73,-339"/>
<text xml:space="preserve" text-anchor="middle" x="569.73" y="-315.4" font-family="Helvetica,sans-Serif" font-weight="bold" font-size="13.00" fill="white">tester</text>
</g>
<!-- config -->
<g id="node5" class="node">
<title>config</title>
<path fill="#f0a500" stroke="black" d="M1039.98,-65C1039.98,-65 1007.48,-65 1007.48,-65 1001.48,-65 995.48,-59 995.48,-53 995.48,-53 995.48,-41 995.48,-41 995.48,-35 1001.48,-29 1007.48,-29 1007.48,-29 1039.98,-29 1039.98,-29 1045.98,-29 1051.98,-35 1051.98,-41 1051.98,-41 1051.98,-53 1051.98,-53 1051.98,-59 1045.98,-65 1039.98,-65"/>
<text xml:space="preserve" text-anchor="middle" x="1023.73" y="-41.4" font-family="Helvetica,sans-Serif" font-weight="bold" font-size="13.00" fill="white">config</text>
</g>
<!-- tester&#45;&gt;config -->
<g id="edge7" class="edge">
<title>tester&#45;&gt;config</title>
<path fill="none" stroke="black" d="M597.2,-325C694.13,-325 1014.31,-325 1014.31,-325 1014.31,-325 1014.31,-76.75 1014.31,-76.75"/>
<polygon fill="black" stroke="black" points="1017.81,-76.75 1014.31,-66.75 1010.81,-76.75 1017.81,-76.75"/>
<text xml:space="preserve" text-anchor="middle" x="917.88" y="-326.75" font-family="Helvetica,sans-Serif" font-size="10.00">reads</text>
</g>
<!-- domain_model -->
<g id="node6" class="node">
<title>domain_model</title>
<path fill="#5ba8a0" stroke="black" d="M911.6,-65C911.6,-65 825.85,-65 825.85,-65 819.85,-65 813.85,-59 813.85,-53 813.85,-53 813.85,-41 813.85,-41 813.85,-35 819.85,-29 825.85,-29 825.85,-29 911.6,-29 911.6,-29 917.6,-29 923.6,-35 923.6,-41 923.6,-41 923.6,-53 923.6,-53 923.6,-59 917.6,-65 911.6,-65"/>
<text xml:space="preserve" text-anchor="middle" x="868.73" y="-41.4" font-family="Helvetica,sans-Serif" font-weight="bold" font-size="13.00" fill="white">domain_model</text>
</g>
<!-- tester&#45;&gt;domain_model -->
<g id="edge6" class="edge">
<title>tester&#45;&gt;domain_model</title>
<path fill="none" stroke="black" d="M597.05,-317C670.87,-317 868.73,-317 868.73,-317 868.73,-317 868.73,-76.65 868.73,-76.65"/>
<polygon fill="black" stroke="black" points="872.23,-76.65 868.73,-66.65 865.23,-76.65 872.23,-76.65"/>
<text xml:space="preserve" text-anchor="middle" x="833.19" y="-318.75" font-family="Helvetica,sans-Serif" font-size="10.00">produces</text>
</g>
<!-- protocols -->
<g id="node7" class="node">
<title>protocols</title>
<path fill="#5b8cc8" stroke="black" d="M216.48,-65C216.48,-65 162.98,-65 162.98,-65 156.98,-65 150.98,-59 150.98,-53 150.98,-53 150.98,-41 150.98,-41 150.98,-35 156.98,-29 162.98,-29 162.98,-29 216.48,-29 216.48,-29 222.48,-29 228.48,-35 228.48,-41 228.48,-41 228.48,-53 228.48,-53 228.48,-59 222.48,-65 216.48,-65"/>
<text xml:space="preserve" text-anchor="middle" x="189.73" y="-41.4" font-family="Helvetica,sans-Serif" font-weight="bold" font-size="13.00" fill="white">protocols</text>
</g>
<!-- tester&#45;&gt;protocols -->
<g id="edge2" class="edge">
<title>tester&#45;&gt;protocols</title>
<path fill="none" stroke="black" d="M542.32,-325C454.26,-325 184.29,-325 184.29,-325 184.29,-325 184.29,-76.75 184.29,-76.75"/>
<polygon fill="black" stroke="black" points="187.79,-76.75 184.29,-66.75 180.79,-76.75 187.79,-76.75"/>
<text xml:space="preserve" text-anchor="middle" x="228.68" y="-326.75" font-family="Helvetica,sans-Serif" font-size="10.00">uses</text>
</g>
<!-- tool_pool -->
<g id="node8" class="node">
<title>tool_pool</title>
<path fill="#e0960a" stroke="black" d="M365.1,-65C365.1,-65 312.35,-65 312.35,-65 306.35,-65 300.35,-59 300.35,-53 300.35,-53 300.35,-41 300.35,-41 300.35,-35 306.35,-29 312.35,-29 312.35,-29 365.1,-29 365.1,-29 371.1,-29 377.1,-35 377.1,-41 377.1,-41 377.1,-53 377.1,-53 377.1,-59 371.1,-65 365.1,-65"/>
<text xml:space="preserve" text-anchor="middle" x="338.73" y="-41.4" font-family="Helvetica,sans-Serif" font-weight="bold" font-size="13.00" fill="white">tool_pool</text>
</g>
<!-- tester&#45;&gt;tool_pool -->
<g id="edge5" class="edge">
<title>tester&#45;&gt;tool_pool</title>
<path fill="none" stroke="black" d="M542.31,-310C481.87,-310 342.48,-310 342.48,-310 342.48,-310 342.48,-77.01 342.48,-77.01"/>
<polygon fill="black" stroke="black" points="345.98,-77.01 342.48,-67.01 338.98,-77.01 345.98,-77.01"/>
<text xml:space="preserve" text-anchor="middle" x="330.48" y="-295.17" font-family="Helvetica,sans-Serif" font-size="10.00">reads</text>
</g>
<!-- workflow -->
<g id="node9" class="node">
<title>workflow</title>
<path fill="#8a5ba0" stroke="black" d="M67.23,-65C67.23,-65 18.23,-65 18.23,-65 12.23,-65 6.23,-59 6.23,-53 6.23,-53 6.23,-41 6.23,-41 6.23,-35 12.23,-29 18.23,-29 18.23,-29 67.23,-29 67.23,-29 73.23,-29 79.23,-35 79.23,-41 79.23,-41 79.23,-53 79.23,-53 79.23,-59 73.23,-65 67.23,-65"/>
<text xml:space="preserve" text-anchor="middle" x="42.73" y="-41.4" font-family="Helvetica,sans-Serif" font-weight="bold" font-size="13.00" fill="white">workflow</text>
</g>
<!-- tester&#45;&gt;workflow -->
<g id="edge8" class="edge">
<title>tester&#45;&gt;workflow</title>
<path fill="none" stroke="black" d="M542.25,-332C432.38,-332 30.56,-332 30.56,-332 30.56,-332 30.56,-76.78 30.56,-76.78"/>
<polygon fill="black" stroke="black" points="34.06,-76.78 30.56,-66.78 27.06,-76.78 34.06,-76.78"/>
<text xml:space="preserve" text-anchor="middle" x="148.29" y="-333.75" font-family="Helvetica,sans-Serif" font-size="10.00">uses</text>
</g>
<!-- experiment_logger -->
<g id="node10" class="node">
<title>experiment_logger</title>
<path fill="#c0463a" stroke="black" d="M729.73,-65C729.73,-65 617.73,-65 617.73,-65 611.73,-65 605.73,-59 605.73,-53 605.73,-53 605.73,-41 605.73,-41 605.73,-35 611.73,-29 617.73,-29 617.73,-29 729.73,-29 729.73,-29 735.73,-29 741.73,-35 741.73,-41 741.73,-41 741.73,-53 741.73,-53 741.73,-59 735.73,-65 729.73,-65"/>
<text xml:space="preserve" text-anchor="middle" x="673.73" y="-41.4" font-family="Helvetica,sans-Serif" font-weight="bold" font-size="13.00" fill="white">experiment_logger</text>
</g>
<!-- tester&#45;&gt;experiment_logger -->
<g id="edge9" class="edge">
<title>tester&#45;&gt;experiment_logger</title>
<path fill="none" stroke="black" d="M597.21,-310C629.15,-310 677.54,-310 677.54,-310 677.54,-310 677.54,-77.01 677.54,-77.01"/>
<polygon fill="black" stroke="black" points="681.04,-77.01 677.54,-67.01 674.04,-77.01 681.04,-77.01"/>
<text xml:space="preserve" text-anchor="middle" x="639.66" y="-235.42" font-family="Helvetica,sans-Serif" font-size="10.00">delegates logging</text>
</g>
<!-- adapters -->
<g id="node11" class="node">
<title>adapters</title>
<path fill="#7dbb7d" stroke="black" d="M1183.85,-202C1183.85,-202 1135.6,-202 1135.6,-202 1129.6,-202 1123.6,-196 1123.6,-190 1123.6,-190 1123.6,-178 1123.6,-178 1123.6,-172 1129.6,-166 1135.6,-166 1135.6,-166 1183.85,-166 1183.85,-166 1189.85,-166 1195.85,-172 1195.85,-178 1195.85,-178 1195.85,-190 1195.85,-190 1195.85,-196 1189.85,-202 1183.85,-202"/>
<text xml:space="preserve" text-anchor="middle" x="1159.73" y="-178.4" font-family="Helvetica,sans-Serif" font-weight="bold" font-size="13.00" fill="white">adapters</text>
</g>
<!-- tester&#45;&gt;adapters -->
<g id="edge1" class="edge">
<title>tester&#45;&gt;adapters</title>
<path fill="none" stroke="black" d="M597,-332C713.04,-332 1159.73,-332 1159.73,-332 1159.73,-332 1159.73,-213.96 1159.73,-213.96"/>
<polygon fill="black" stroke="black" points="1163.23,-213.96 1159.73,-203.96 1156.23,-213.96 1163.23,-213.96"/>
<text xml:space="preserve" text-anchor="middle" x="947.88" y="-333.75" font-family="Helvetica,sans-Serif" font-size="10.00">uses</text>
</g>
<!-- frameworks -->
<g id="node12" class="node">
<title>frameworks</title>
<path fill="#b05ab0" stroke="black" d="M295.85,-202C295.85,-202 229.6,-202 229.6,-202 223.6,-202 217.6,-196 217.6,-190 217.6,-190 217.6,-178 217.6,-178 217.6,-172 223.6,-166 229.6,-166 229.6,-166 295.85,-166 295.85,-166 301.85,-166 307.85,-172 307.85,-178 307.85,-178 307.85,-190 307.85,-190 307.85,-196 301.85,-202 295.85,-202"/>
<text xml:space="preserve" text-anchor="middle" x="262.73" y="-178.4" font-family="Helvetica,sans-Serif" font-weight="bold" font-size="13.00" fill="white">frameworks</text>
</g>
<!-- tester&#45;&gt;frameworks -->
<g id="edge3" class="edge">
<title>tester&#45;&gt;frameworks</title>
<path fill="none" stroke="black" d="M542.48,-317C467.35,-317 262.73,-317 262.73,-317 262.73,-317 262.73,-214.01 262.73,-214.01"/>
<polygon fill="black" stroke="black" points="266.23,-214.01 262.73,-204.01 259.23,-214.01 266.23,-214.01"/>
<text xml:space="preserve" text-anchor="middle" x="340.23" y="-318.75" font-family="Helvetica,sans-Serif" font-size="10.00">tests</text>
</g>
<!-- benchmark -->
<g id="node13" class="node">
<title>benchmark</title>
<path fill="#a89a20" stroke="black" d="M601.35,-202C601.35,-202 538.1,-202 538.1,-202 532.1,-202 526.1,-196 526.1,-190 526.1,-190 526.1,-178 526.1,-178 526.1,-172 532.1,-166 538.1,-166 538.1,-166 601.35,-166 601.35,-166 607.35,-166 613.35,-172 613.35,-178 613.35,-178 613.35,-190 613.35,-190 613.35,-196 607.35,-202 601.35,-202"/>
<text xml:space="preserve" text-anchor="middle" x="569.73" y="-178.4" font-family="Helvetica,sans-Serif" font-weight="bold" font-size="13.00" fill="white">benchmark</text>
</g>
<!-- tester&#45;&gt;benchmark -->
<g id="edge4" class="edge">
<title>tester&#45;&gt;benchmark</title>
<path fill="none" stroke="black" d="M569.73,-302.52C569.73,-302.52 569.73,-213.7 569.73,-213.7"/>
<polygon fill="black" stroke="black" points="573.23,-213.7 569.73,-203.7 566.23,-213.7 573.23,-213.7"/>
<text xml:space="preserve" text-anchor="middle" x="548.73" y="-259.86" font-family="Helvetica,sans-Serif" font-size="10.00">evaluates</text>
</g>
<!-- workflow&#45;&gt;config -->
<g id="edge17" class="edge">
<title>workflow&#45;&gt;config</title>
<path fill="none" stroke="black" d="M24.48,-28.69C24.48,-15.5 24.48,0 24.48,0 24.48,0 1033.14,0 1033.14,0 1033.14,0 1033.14,-17.18 1033.14,-17.18"/>
<polygon fill="black" stroke="black" points="1029.64,-17.18 1033.14,-27.18 1036.64,-17.18 1029.64,-17.18"/>
<text xml:space="preserve" text-anchor="middle" x="511.05" y="-1.75" font-family="Helvetica,sans-Serif" font-size="10.00">reads</text>
</g>
<!-- workflow&#45;&gt;domain_model -->
<g id="edge19" class="edge">
<title>workflow&#45;&gt;domain_model</title>
<path fill="none" stroke="black" d="M42.73,-28.87C42.73,-18.29 42.73,-7 42.73,-7 42.73,-7 868.73,-7 868.73,-7 868.73,-7 868.73,-17.36 868.73,-17.36"/>
<polygon fill="black" stroke="black" points="865.23,-17.36 868.73,-27.36 872.23,-17.36 865.23,-17.36"/>
<text xml:space="preserve" text-anchor="middle" x="439.47" y="-8.75" font-family="Helvetica,sans-Serif" font-size="10.00">uses</text>
</g>
<!-- workflow&#45;&gt;tool_pool -->
<g id="edge18" class="edge">
<title>workflow&#45;&gt;tool_pool</title>
<path fill="none" stroke="black" d="M60.98,-28.76C60.98,-21.57 60.98,-15 60.98,-15 60.98,-15 338.73,-15 338.73,-15 338.73,-15 338.73,-17.24 338.73,-17.24"/>
<polygon fill="black" stroke="black" points="335.23,-17.24 338.73,-27.24 342.23,-17.24 335.23,-17.24"/>
<text xml:space="preserve" text-anchor="middle" x="154.34" y="-16.75" font-family="Helvetica,sans-Serif" font-size="10.00">invoke() for ReAct</text>
</g>
<!-- experiment_logger&#45;&gt;config -->
<g id="edge21" class="edge">
<title>experiment_logger&#45;&gt;config</title>
<path fill="none" stroke="black" d="M673.73,-28.57C673.73,-24.82 673.73,-22 673.73,-22 673.73,-22 1014.31,-22 1014.31,-22 1014.31,-22 1014.31,-22.66 1014.31,-22.66"/>
<polygon fill="black" stroke="black" points="1010.81,-17.05 1014.31,-27.05 1017.81,-17.05 1010.81,-17.05"/>
<text xml:space="preserve" text-anchor="middle" x="802.06" y="-12.5" font-family="Helvetica,sans-Serif" font-size="10.00">reads (yaml_path)</text>
</g>
<!-- experiment_logger&#45;&gt;domain_model -->
<g id="edge20" class="edge">
<title>experiment_logger&#45;&gt;domain_model</title>
<path fill="none" stroke="black" d="M742.2,-47C742.2,-47 802.08,-47 802.08,-47"/>
<polygon fill="black" stroke="black" points="802.08,-50.5 812.08,-47 802.08,-43.5 802.08,-50.5"/>
<text xml:space="preserve" text-anchor="middle" x="785.45" y="-37.5" font-family="Helvetica,sans-Serif" font-size="10.00">reads/writes</text>
</g>
<!-- adapters&#45;&gt;HuggingFaceAPI -->
<g id="edge10" class="edge">
<title>adapters&#45;&gt;HuggingFaceAPI</title>
<path fill="none" stroke="black" stroke-width="2" d="M1196.2,-184C1243.15,-184 1318.73,-184 1318.73,-184 1318.73,-184 1318.73,-76.99 1318.73,-76.99"/>
<polygon fill="black" stroke="black" stroke-width="2" points="1322.23,-78.5 1318.73,-68.5 1315.23,-78.5 1322.23,-78.5"/>
<text xml:space="preserve" text-anchor="middle" x="1272.35" y="-185.75" font-family="Helvetica,sans-Serif" font-size="10.00">chat_completion()</text>
</g>
<!-- adapters&#45;&gt;OpenAIAPI -->
<g id="edge11" class="edge">
<title>adapters&#45;&gt;OpenAIAPI</title>
<path fill="none" stroke="black" stroke-width="2" d="M1171.77,-165.52C1171.77,-165.52 1171.77,-76.7 1171.77,-76.7"/>
<polygon fill="black" stroke="black" stroke-width="2" points="1175.27,-78.21 1171.77,-68.21 1168.27,-78.21 1175.27,-78.21"/>
<text xml:space="preserve" text-anchor="middle" x="1116.64" y="-122.86" font-family="Helvetica,sans-Serif" font-size="10.00">chat.completions.create()</text>
</g>
<!-- adapters&#45;&gt;config -->
<g id="edge12" class="edge">
<title>adapters&#45;&gt;config</title>
<path fill="none" stroke="black" d="M1123.11,-178C1085.73,-178 1033.14,-178 1033.14,-178 1033.14,-178 1033.14,-77 1033.14,-77"/>
<polygon fill="black" stroke="black" points="1036.64,-77 1033.14,-67 1029.64,-77 1036.64,-77"/>
<text xml:space="preserve" text-anchor="middle" x="1021.14" y="-174.24" font-family="Helvetica,sans-Serif" font-size="10.00">reads</text>
</g>
<!-- frameworks&#45;&gt;protocols -->
<g id="edge15" class="edge">
<title>frameworks&#45;&gt;protocols</title>
<path fill="none" stroke="black" d="M223.04,-165.52C223.04,-165.52 223.04,-76.7 223.04,-76.7"/>
<polygon fill="black" stroke="black" points="226.54,-76.7 223.04,-66.7 219.54,-76.7 226.54,-76.7"/>
<text xml:space="preserve" text-anchor="middle" x="209.91" y="-122.86" font-family="Helvetica,sans-Serif" font-size="10.00">wraps</text>
</g>
<!-- frameworks&#45;&gt;tool_pool -->
<g id="edge14" class="edge">
<title>frameworks&#45;&gt;tool_pool</title>
<path fill="none" stroke="black" d="M302.85,-165.52C302.85,-165.52 302.85,-76.7 302.85,-76.7"/>
<polygon fill="black" stroke="black" points="306.35,-76.7 302.85,-66.7 299.35,-76.7 306.35,-76.7"/>
<text xml:space="preserve" text-anchor="middle" x="282.6" y="-122.86" font-family="Helvetica,sans-Serif" font-size="10.00">get_tool()</text>
</g>
<!-- frameworks&#45;&gt;workflow -->
<g id="edge16" class="edge">
<title>frameworks&#45;&gt;workflow</title>
<path fill="none" stroke="black" d="M217.12,-184C155.94,-184 54.89,-184 54.89,-184 54.89,-184 54.89,-76.99 54.89,-76.99"/>
<polygon fill="black" stroke="black" points="58.39,-76.99 54.89,-66.99 51.39,-76.99 58.39,-76.99"/>
<text xml:space="preserve" text-anchor="middle" x="41.25" y="-185.75" font-family="Helvetica,sans-Serif" font-size="10.00">WorkflowController</text>
</g>
<!-- frameworks&#45;&gt;adapters -->
<g id="edge13" class="edge">
<title>frameworks&#45;&gt;adapters</title>
<path fill="none" stroke="black" d="M305.35,-165.78C305.35,-145.63 305.35,-116 305.35,-116 305.35,-116 1147.68,-116 1147.68,-116 1147.68,-116 1147.68,-154.26 1147.68,-154.26"/>
<polygon fill="black" stroke="black" points="1144.19,-154.26 1147.68,-164.26 1151.19,-154.26 1144.19,-154.26"/>
<text xml:space="preserve" text-anchor="middle" x="699.01" y="-117.75" font-family="Helvetica,sans-Serif" font-size="10.00">generate()</text>
</g>
<!-- benchmark&#45;&gt;Mind2WebDataset -->
<g id="edge22" class="edge">
<title>benchmark&#45;&gt;Mind2WebDataset</title>
<path fill="none" stroke="black" stroke-width="2" d="M529.98,-165.52C529.98,-165.52 529.98,-76.7 529.98,-76.7"/>
<polygon fill="black" stroke="black" stroke-width="2" points="533.48,-78.21 529.98,-68.21 526.48,-78.21 533.48,-78.21"/>
<text xml:space="preserve" text-anchor="middle" x="499.23" y="-122.86" font-family="Helvetica,sans-Serif" font-size="10.00">load_dataset()</text>
</g>
<!-- benchmark&#45;&gt;adapters -->
<g id="edge23" class="edge">
<title>benchmark&#45;&gt;adapters</title>
<path fill="none" stroke="black" d="M613.59,-190C613.59,-190 1111.78,-190 1111.78,-190"/>
<polygon fill="black" stroke="black" points="1111.78,-193.5 1121.78,-190 1111.78,-186.5 1111.78,-193.5"/>
<text xml:space="preserve" text-anchor="middle" x="851.06" y="-191.75" font-family="Helvetica,sans-Serif" font-size="10.00">judge</text>
</g>
</g>
</svg>
