<?xml version="1.0" encoding="UTF-8" standalone="no"?>
<!DOCTYPE svg PUBLIC "-//W3C//DTD SVG 1.1//EN"
 "http://www.w3.org/Graphics/SVG/1.1/DTD/svg11.dtd">
<!-- Generated by graphviz version 14.0.1 (20251006.0113)
 -->
<!-- Title: MASTIF_Packages Pages: 1 -->
<svg width="1425pt" height="455pt"
 viewBox="0.00 0.00 1425.00 455.00" xmlns="http://www.w3.org/2000/svg" xmlns:xlink="http://www.w3.org/1999/xlink">
<g id="graph0" class="graph" transform="scale(1 1) rotate(0) translate(4 451)">
<title>MASTIF_Packages</title>
<polygon fill="white" stroke="none" points="-4,4 -4,-451 1421.12,-451 1421.12,4 -4,4"/>
<!-- HuggingFaceAPI -->
<g id="node1" class="node">
<title>HuggingFaceAPI</title>
<polygon fill="#e0e0e0" stroke="black" points="926.12,-447 837.38,-447 837.38,-443 833.38,-443 833.38,-439 837.38,-439 837.38,-419 833.38,-419 833.38,-415 837.38,-415 837.38,-411 926.12,-411 926.12,-447"/>
<polyline fill="none" stroke="black" points="837.38,-443 841.38,-443 841.38,-439 837.38,-439"/>
<polyline fill="none" stroke="black" points="837.38,-419 841.38,-419 841.38,-415 837.38,-415"/>
<text xml:space="preserve" text-anchor="middle" x="881.75" y="-430.35" font-family="Helvetica,sans-Serif" font-size="12.00">HuggingFace</text>
<text xml:space="preserve" text-anchor="middle" x="881.75" y="-417.6" font-family="Helvetica,sans-Serif" font-size="12.00">Inference API</text>
</g>
<!-- OpenAIAPI -->
<g id="node2" class="node">
<title>OpenAIAPI</title>
<polygon fill="#e0e0e0" stroke="black" points="1076.88,-447 998.62,-447 998.62,-443 994.62,-443 994.62,-439 998.62,-439 998.62,-419 994.62,-419 994.62,-415 998.62,-415 998.62,-411 1076.88,-411 1076.88,-447"/>
<polyline fill="none" stroke="black" points="998.62,-443 1002.62,-443 1002.62,-439 998.62,-439"/>
<polyline fill="none" stroke="black" points="998.62,-419 1002.62,-419 1002.62,-415 998.62,-415"/>
<text xml:space="preserve" text-anchor="middle" x="1037.75" y="-423.98" font-family="Helvetica,sans-Serif" font-size="12.00">OpenAI API</text>
</g>
<!-- AnthropicAPI -->
<g id="node3" class="node">
<title>AnthropicAPI</title>
<polygon fill="#e0e0e0" stroke="black" points="1238.12,-447 1149.38,-447 1149.38,-443 1145.38,-443 1145.38,-439 1149.38,-439 1149.38,-419 1145.38,-419 1145.38,-415 1149.38,-415 1149.38,-411 1238.12,-411 1238.12,-447"/>
<polyline fill="none" stroke="black" points="1149.38,-443 1153.38,-443 1153.38,-439 1149.38,-439"/>
<polyline fill="none" stroke="black" points="1149.38,-419 1153.38,-419 1153.38,-415 1149.38,-415"/>
<text xml:space="preserve" text-anchor="middle" x="1193.75" y="-423.98" font-family="Helvetica,sans-Serif" font-size="12.00">Anthropic API</text>
</g>
<!-- OllamaAPI -->
<g id="node4" class="node">
<title>OllamaAPI</title>
<polygon fill="#e0e0e0" stroke="black" points="1417.12,-447 1310.38,-447 1310.38,-443 1306.38,-443 1306.38,-439 1310.38,-439 1310.38,-419 1306.38,-419 1306.38,-415 1310.38,-415 1310.38,-411 1417.12,-411 1417.12,-447"/>
<polyline fill="none" stroke="black" points="1310.38,-443 1314.38,-443 1314.38,-439 1310.38,-439"/>
<polyline fill="none" stroke="black" points="1310.38,-419 1314.38,-419 1314.38,-415 1310.38,-415"/>
<text xml:space="preserve" text-anchor="middle" x="1363.75" y="-430.35" font-family="Helvetica,sans-Serif" font-size="12.00">Ollama</text>
<text xml:space="preserve" text-anchor="middle" x="1363.75" y="-417.6" font-family="Helvetica,sans-Serif" font-size="12.00">Server (/api/chat)</text>
</g>
<!-- Mind2WebDataset -->
<g id="node5" class="node">
<title>Mind2WebDataset</title>
<polygon fill="#e0e0e0" stroke="black" points="602.88,-447 518.62,-447 518.62,-443 514.62,-443 514.62,-439 518.62,-439 518.62,-419 514.62,-419 514.62,-415 518.62,-415 518.62,-411 602.88,-411 602.88,-447"/>
<polyline fill="none" stroke="black" points="518.62,-443 522.62,-443 522.62,-439 518.62,-439"/>
<polyline fill="none" stroke="black" points="518.62,-419 522.62,-419 522.62,-415 518.62,-415"/>
<text xml:space="preserve" text-anchor="middle" x="560.75" y="-430.35" font-family="Helvetica,sans-Serif" font-size="12.00">Mind2Web</text>
<text xml:space="preserve" text-anchor="middle" x="560.75" y="-417.6" font-family="Helvetica,sans-Serif" font-size="12.00">Dataset (HF)</text>
</g>
<!-- tester -->
<g id="node6" class="node">
<title>tester</title>
<path fill="#4a90d9" stroke="black" d="M494.75,-36C494.75,-36 464.75,-36 464.75,-36 458.75,-36 452.75,-30 452.75,-24 452.75,-24 452.75,-12 452.75,-12 452.75,-6 458.75,0 464.75,0 464.75,0 494.75,0 494.75,0 500.75,0 506.75,-6 506.75,-12 506.75,-12 506.75,-24 506.75,-24 506.75,-30 500.75,-36 494.75,-36"/>
<text xml:space="preserve" text-anchor="middle" x="479.75" y="-12.4" font-family="Helvetica,sans-Serif" font-weight="bold" font-size="13.00" fill="white">tester</text>
</g>
<!-- config -->
<g id="node7" class="node">
<title>config</title>
<path fill="#f0a500" stroke="black" d="M1135,-173C1135,-173 1102.5,-173 1102.5,-173 1096.5,-173 1090.5,-167 1090.5,-161 1090.5,-161 1090.5,-149 1090.5,-149 1090.5,-143 1096.5,-137 1102.5,-137 1102.5,-137 1135,-137 1135,-137 1141,-137 1147,-143 1147,-149 1147,-149 1147,-161 1147,-161 1147,-167 1141,-173 1135,-173"/>
<text xml:space="preserve" text-anchor="middle" x="1118.75" y="-149.4" font-family="Helvetica,sans-Serif" font-weight="bold" font-size="13.00" fill="white">config</text>
</g>
<!-- tester&#45;&gt;config -->
<g id="edge7" class="edge">
<title>tester&#45;&gt;config</title>
<path fill="none" stroke="black" d="M507.21,-9C629.52,-9 1118.75,-9 1118.75,-9 1118.75,-9 1118.75,-125 1118.75,-125"/>
<polygon fill="black" stroke="black" points="1115.25,-125 1118.75,-135 1122.25,-125 1115.25,-125"/>
<text xml:space="preserve" text-anchor="middle" x="858.98" y="-10.75" font-family="Helvetica,sans-Serif" font-size="10.00">reads</text>
</g>
<!-- domain_model -->
<g id="node8" class="node">
<title>domain_model</title>
<path fill="#5ba8a0" stroke="black" d="M1006.62,-173C1006.62,-173 920.88,-173 920.88,-173 914.88,-173 908.88,-167 908.88,-161 908.88,-161 908.88,-149 908.88,-149 908.88,-143 914.88,-137 920.88,-137 920.88,-137 1006.62,-137 1006.62,-137 1012.62,-137 1018.62,-143 1018.62,-149 1018.62,-149 1018.62,-161 1018.62,-161 1018.62,-167 1012.62,-173 1006.62,-173"/>
<text xml:space="preserve" text-anchor="middle" x="963.75" y="-149.4" font-family="Helvetica,sans-Serif" font-weight="bold" font-size="13.00" fill="white">domain_model</text>
</g>
<!-- tester&#45;&gt;domain_model -->
<g id="edge6" class="edge">
<title>tester&#45;&gt;domain_model</title>
<path fill="none" stroke="black" d="M507.16,-27C609.55,-27 963.75,-27 963.75,-27 963.75,-27 963.75,-125.15 963.75,-125.15"/>
<polygon fill="black" stroke="black" points="960.25,-125.15 963.75,-135.15 967.25,-125.15 960.25,-125.15"/>
<text xml:space="preserve" text-anchor="middle" x="764.65" y="-28.75" font-family="Helvetica,sans-Serif" font-size="10.00">produces</text>
</g>
<!-- protocols -->
<g id="node9" class="node">
<title>protocols</title>
<path fill="#5b8cc8" stroke="black" d="M65.5,-173C65.5,-173 12,-173 12,-173 6,-173 0,-167 0,-161 0,-161 0,-149 0,-149 0,-143 6,-137 12,-137 12,-137 65.5,-137 65.5,-137 71.5,-137 77.5,-143 77.5,-149 77.5,-149 77.5,-161 77.5,-161 77.5,-167 71.5,-173 65.5,-173"/>
<text xml:space="preserve" text-anchor="middle" x="38.75" y="-149.4" font-family="Helvetica,sans-Serif" font-weight="bold" font-size="13.00" fill="white">protocols</text>
</g>
<!-- tester&#45;&gt;protocols -->
<g id="edge2" class="edge">
<title>tester&#45;&gt;protocols</title>
<path fill="none" stroke="black" d="M452.5,-9C356.35,-9 38.75,-9 38.75,-9 38.75,-9 38.75,-125 38.75,-125"/>
<polygon fill="black" stroke="black" points="35.25,-125 38.75,-135 42.25,-125 35.25,-125"/>
<text xml:space="preserve" text-anchor="middle" x="177.13" y="-10.75" font-family="Helvetica,sans-Serif" font-size="10.00">uses</text>
</g>
<!-- tool_pool -->
<g id="node10" class="node">
<title>tool_pool</title>
<path fill="#e0960a" stroke="black" d="M359.12,-173C359.12,-173 306.38,-173 306.38,-173 300.38,-173 294.38,-167 294.38,-161 294.38,-161 294.38,-149 294.38,-149 294.38,-143 300.38,-137 306.38,-137 306.38,-137 359.12,-137 359.12,-137 365.12,-137 371.12,-143 371.12,-149 371.12,-149 371.12,-161 371.12,-161 371.12,-167 365.12,-173 359.12,-173"/>
<text xml:space="preserve" text-anchor="middle" x="332.75" y="-149.4" font-family="Helvetica,sans-Serif" font-weight="bold" font-size="13.00" fill="white">tool_pool</text>
</g>
<!-- tester&#45;&gt;tool_pool -->
<g id="edge5" class="edge">
<title>tester&#45;&gt;tool_pool</title>
<path fill="none" stroke="black" d="M466.25,-36.49C466.25,-72.6 466.25,-149 466.25,-149 466.25,-149 382.88,-149 382.88,-149"/>
<polygon fill="black" stroke="black" points="382.88,-145.5 372.88,-149 382.88,-152.5 382.88,-145.5"/>
<text xml:space="preserve" text-anchor="middle" x="454.25" y="-136.18" font-family="Helvetica,sans-Serif" font-size="10.00">reads</text>
</g>
<!-- workflow -->
<g id="node11" class="node">
<title>workflow</title>
<path fill="#8a5ba0" stroke="black" d="M210.25,-173C210.25,-173 161.25,-173 161.25,-173 155.25,-173 149.25,-167 149.25,-161 149.25,-161 149.25,-149 149.25,-149 149.25,-143 155.25,-137 161.25,-137 161.25,-137 210.25,-137 210.25,-137 216.25,-137 222.25,-143 222.25,-149 222.25,-149 222.25,-161 222.25,-161 222.25,-167 216.25,-173 210.25,-173"/>
<text xml:space="preserve" text-anchor="middle" x="185.75" y="-149.4" font-family="Helvetica,sans-Serif" font-weight="bold" font-size="13.00" fill="white">workflow</text>
</g>
<!-- tester&#45;&gt;workflow -->
<g id="edge8" class="edge">
<title>tester&#45;&gt;workflow</title>
<path fill="none" stroke="black" d="M452.36,-18C379.37,-18 185.75,-18 185.75,-18 185.75,-18 185.75,-125.01 185.75,-125.01"/>
<polygon fill="black" stroke="black" points="182.25,-125.01 185.75,-135.01 189.25,-125.01 182.25,-125.01"/>
<text xml:space="preserve" text-anchor="middle" x="255.05" y="-19.75" font-family="Helvetica,sans-Serif" font-size="10.00">uses</text>
</g>
<!-- experiment_logger -->
<g id="node12" class="node">
<title>experiment_logger</title>
<path fill="#c0463a" stroke="black" d="M825,-173C825,-173 600.5,-173 600.5,-173 594.5,-173 588.5,-167 588.5,-161 588.5,-161 588.5,-149 588.5,-149 588.5,-143 594.5,-137 600.5,-137 600.5,-137 825,-137 825,-137 831,-137 837,-143 837,-149 837,-149 837,-161 837,-161 837,-167 831,-173 825,-173"/>
<text xml:space="preserve" text-anchor="middle" x="712.75" y="-156.15" font-family="Helvetica,sans-Serif" font-weight="bold" font-size="13.00" fill="white">experiment_logger</text>
<text xml:space="preserve" text-anchor="middle" x="712.75" y="-142.65" font-family="Helvetica,sans-Serif" font-weight="bold" font-size="13.00" fill="white">(tokenizer fallback, warnings dedup)</text>
</g>
<!-- tester&#45;&gt;experiment_logger -->
<g id="edge9" class="edge">
<title>tester&#45;&gt;experiment_logger</title>
<path fill="none" stroke="black" d="M493.25,-36.4C493.25,-75.02 493.25,-161 493.25,-161 493.25,-161 576.74,-161 576.74,-161"/>
<polygon fill="black" stroke="black" points="576.74,-164.5 586.74,-161 576.74,-157.5 576.74,-164.5"/>
<text xml:space="preserve" text-anchor="middle" x="531.12" y="-142.19" font-family="Helvetica,sans-Serif" font-size="10.00">delegates logging</text>
</g>
<!-- adapters -->
<g id="node13" class="node">
<title>adapters</title>
<path fill="#7dbb7d" stroke="black" d="M1101.88,-310C1101.88,-310 1053.62,-310 1053.62,-310 1047.62,-310 1041.62,-304 1041.62,-298 1041.62,-298 1041.62,-286 1041.62,-286 1041.62,-280 1047.62,-274 1053.62,-274 1053.62,-274 1101.88,-274 1101.88,-274 1107.88,-274 1113.88,-280 1113.88,-286 1113.88,-286 1113.88,-298 1113.88,-298 1113.88,-304 1107.88,-310 1101.88,-310"/>
<text xml:space="preserve" text-anchor="middle" x="1077.75" y="-286.4" font-family="Helvetica,sans-Serif" font-weight="bold" font-size="13.00" fill="white">adapters</text>
</g>
<!-- tester&#45;&gt;adapters -->
<g id="edge1" class="edge">
<title>tester&#45;&gt;adapters</title>
<path fill="none" stroke="black" d="M507.24,-18C623.16,-18 1066.06,-18 1066.06,-18 1066.06,-18 1066.06,-262.08 1066.06,-262.08"/>
<polygon fill="black" stroke="black" points="1062.56,-262.08 1066.06,-272.08 1069.56,-262.08 1062.56,-262.08"/>
<text xml:space="preserve" text-anchor="middle" x="898.19" y="-19.75" font-family="Helvetica,sans-Serif" font-size="10.00">uses</text>
</g>
<!-- frameworks -->
<g id="node14" class="node">
<title>frameworks</title>
<path fill="#b05ab0" stroke="black" d="M218.88,-310C218.88,-310 152.62,-310 152.62,-310 146.62,-310 140.62,-304 140.62,-298 140.62,-298 140.62,-286 140.62,-286 140.62,-280 146.62,-274 152.62,-274 152.62,-274 218.88,-274 218.88,-274 224.88,-274 230.88,-280 230.88,-286 230.88,-286 230.88,-298 230.88,-298 230.88,-304 224.88,-310 218.88,-310"/>
<text xml:space="preserve" text-anchor="middle" x="185.75" y="-286.4" font-family="Helvetica,sans-Serif" font-weight="bold" font-size="13.00" fill="white">frameworks</text>
</g>
<!-- tester&#45;&gt;frameworks -->
<g id="edge3" class="edge">
<title>tester&#45;&gt;frameworks</title>
<path fill="none" stroke="black" d="M452.5,-27C386.81,-27 225.12,-27 225.12,-27 225.12,-27 225.12,-262.27 225.12,-262.27"/>
<polygon fill="black" stroke="black" points="221.63,-262.27 225.13,-272.27 228.63,-262.27 221.63,-262.27"/>
<text xml:space="preserve" text-anchor="middle" x="214.25" y="-32.7" font-family="Helvetica,sans-Serif" font-size="10.00">tests</text>
</g>
<!-- benchmark -->
<g id="node15" class="node">
<title>benchmark</title>
<path fill="#a89a20" stroke="black" d="M592.38,-310C592.38,-310 529.12,-310 529.12,-310 523.12,-310 517.12,-304 517.12,-298 517.12,-298 517.12,-286 517.12,-286 517.12,-280 523.12,-274 529.12,-274 529.12,-274 592.38,-274 592.38,-274 598.38,-274 604.38,-280 604.38,-286 604.38,-286 604.38,-298 604.38,-298 604.38,-304 598.38,-310 592.38,-310"/>
<text xml:space="preserve" text-anchor="middle" x="560.75" y="-286.4" font-family="Helvetica,sans-Serif" font-weight="bold" font-size="13.00" fill="white">benchmark</text>
</g>
<!-- tester&#45;&gt;benchmark -->
<g id="edge4" class="edge">
<title>tester&#45;&gt;benchmark</title>
<path fill="none" stroke="black" d="M479.75,-36.4C479.75,-97.84 479.75,-292 479.75,-292 479.75,-292 505.42,-292 505.42,-292"/>
<polygon fill="black" stroke="black" points="505.42,-295.5 515.42,-292 505.42,-288.5 505.42,-295.5"/>
<text xml:space="preserve" text-anchor="middle" x="458.75" y="-178.79" font-family="Helvetica,sans-Serif" font-size="10.00">evaluates</text>
</g>
<!-- workflow&#45;&gt;config -->
<g id="edge19" class="edge">
<title>workflow&#45;&gt;config</title>
<path fill="none" stroke="black" d="M185.75,-173.12C185.75,-200.44 185.75,-249 185.75,-249 185.75,-249 1102.19,-249 1102.19,-249 1102.19,-249 1102.19,-184.64 1102.19,-184.64"/>
<polygon fill="black" stroke="black" points="1105.69,-184.64 1102.19,-174.64 1098.69,-184.64 1105.69,-184.64"/>
<text xml:space="preserve" text-anchor="middle" x="626.21" y="-250.75" font-family="Helvetica,sans-Serif" font-size="10.00">reads</text>
</g>
<!-- workflow&#45;&gt;domain_model -->
<g id="edge21" class="edge">
<title>workflow&#45;&gt;domain_model</title>
<path fill="none" stroke="black" d="M204,-173.49C204,-193.93 204,-224 204,-224 204,-224 914.62,-224 914.62,-224 914.62,-224 914.62,-185 914.62,-185"/>
<polygon fill="black" stroke="black" points="918.13,-185 914.63,-175 911.13,-185 918.13,-185"/>
<text xml:space="preserve" text-anchor="middle" x="543.06" y="-225.75" font-family="Helvetica,sans-Serif" font-size="10.00">uses</text>
</g>
<!-- workflow&#45;&gt;tool_pool -->
<g id="edge20" class="edge">
<title>workflow&#45;&gt;tool_pool</title>
<path fill="none" stroke="black" d="M222.47,-149C222.47,-149 282.42,-149 282.42,-149"/>
<polygon fill="black" stroke="black" points="282.42,-152.5 292.42,-149 282.42,-145.5 282.42,-152.5"/>
<text xml:space="preserve" text-anchor="middle" x="252.44" y="-139.5" font-family="Helvetica,sans-Serif" font-size="10.00">invoke() for ReAct</text>
</g>
<!-- experiment_logger&#45;&gt;config -->
<g id="edge23" class="edge">
<title>experiment_logger&#45;&gt;config</title>
<path fill="none" stroke="black" d="M720.69,-173.49C720.69,-185.14 720.69,-198 720.69,-198 720.69,-198 1096.34,-198 1096.34,-198 1096.34,-198 1096.34,-185 1096.34,-185"/>
<polygon fill="black" stroke="black" points="1099.84,-185 1096.34,-175 1092.84,-185 1099.84,-185"/>
<text xml:space="preserve" text-anchor="middle" x="863.76" y="-199.75" font-family="Helvetica,sans-Serif" font-size="10.00">reads (yaml_path)</text>
</g>
<!-- experiment_logger&#45;&gt;domain_model -->
<g id="edge22" class="edge">
<title>experiment_logger&#45;&gt;domain_model</title>
<path fill="none" stroke="black" d="M837.15,-155C837.15,-155 896.9,-155 896.9,-155"/>
<polygon fill="black" stroke="black" points="896.9,-158.5 906.9,-155 896.9,-151.5 896.9,-158.5"/>
<text xml:space="preserve" text-anchor="middle" x="880.34" y="-145.5" font-family="Helvetica,sans-Serif" font-size="10.00">reads/writes</text>
</g>
<!-- adapters&#45;&gt;HuggingFaceAPI -->
<g id="edge10" class="edge">
<title>adapters&#45;&gt;HuggingFaceAPI</title>
<path fill="none" stroke="black" d="M1041.25,-298C994.76,-298 920.38,-298 920.38,-298 920.38,-298 920.38,-399 920.38,-399"/>
<polygon fill="black" stroke="black" points="916.88,-399 920.38,-409 923.88,-399 916.88,-399"/>
<text xml:space="preserve" text-anchor="middle" x="891.69" y="-299.75" font-family="Helvetica,sans-Serif" font-size="10.00">chat_completion()</text>
</g>
<!-- adapters&#45;&gt;OpenAIAPI -->
<g id="edge11" class="edge">
<title>adapters&#45;&gt;OpenAIAPI</title>
<path fill="none" stroke="black" d="M1065.12,-310.48C1065.12,-310.48 1065.12,-399.3 1065.12,-399.3"/>
<polygon fill="black" stroke="black" points="1061.63,-399.3 1065.13,-409.3 1068.63,-399.3 1061.63,-399.3"/>
<text xml:space="preserve" text-anchor="middle" x="1010" y="-356.64" font-family="Helvetica,sans-Serif" font-size="10.00">chat.completions.create()</text>
</g>
<!-- adapters&#45;&gt;AnthropicAPI -->
<g id="edge12" class="edge">
<title>adapters&#45;&gt;AnthropicAPI</title>
<path fill="none" stroke="black" d="M1095.38,-310.48C1095.38,-347.87 1095.38,-429 1095.38,-429 1095.38,-429 1137.37,-429 1137.37,-429"/>
<polygon fill="black" stroke="black" points="1137.37,-432.5 1147.37,-429 1137.37,-425.5 1137.37,-432.5"/>
<text xml:space="preserve" text-anchor="middle" x="1054.88" y="-392.48" font-family="Helvetica,sans-Serif" font-size="10.00">messages.create()</text>
</g>
<!-- adapters&#45;&gt;OllamaAPI -->
<g id="edge13" class="edge">
<title>adapters&#45;&gt;OllamaAPI</title>
<path fill="none" stroke="black" d="M1114.26,-292C1191.36,-292 1363.75,-292 1363.75,-292 1363.75,-292 1363.75,-399.01 1363.75,-399.01"/>
<polygon fill="black" stroke="black" points="1360.25,-399.01 1363.75,-409.01 1367.25,-399.01 1360.25,-399.01"/>
<text xml:space="preserve" text-anchor="middle" x="1273.76" y="-293.75" font-family="Helvetica,sans-Serif" font-size="10.00">/api/chat</text>
</g>
<!-- adapters&#45;&gt;config -->
<g id="edge14" class="edge">
<title>adapters&#45;&gt;config</title>
<path fill="none" stroke="black" d="M1108.03,-273.52C1108.03,-273.52 1108.03,-184.7 1108.03,-184.7"/>
<polygon fill="black" stroke="black" points="1111.53,-184.7 1108.03,-174.7 1104.53,-184.7 1111.53,-184.7"/>
<text xml:space="preserve" text-anchor="middle" x="1096.03" y="-230.86" font-family="Helvetica,sans-Serif" font-size="10.00">reads</text>
</g>
<!-- frameworks&#45;&gt;protocols -->
<g id="edge17" class="edge">
<title>frameworks&#45;&gt;protocols</title>
<path fill="none" stroke="black" d="M144.94,-273.52C144.94,-236.13 144.94,-155 144.94,-155 144.94,-155 89.5,-155 89.5,-155"/>
<polygon fill="black" stroke="black" points="89.5,-151.5 79.5,-155 89.5,-158.5 89.5,-151.5"/>
<text xml:space="preserve" text-anchor="middle" x="131.81" y="-188.29" font-family="Helvetica,sans-Serif" font-size="10.00">wraps</text>
</g>
<!-- frameworks&#45;&gt;tool_pool -->
<g id="edge16" class="edge">
<title>frameworks&#45;&gt;tool_pool</title>
<path fill="none" stroke="black" d="M228,-273.51C228,-237.4 228,-161 228,-161 228,-161 282.53,-161 282.53,-161"/>
<polygon fill="black" stroke="black" points="282.53,-164.5 292.53,-161 282.53,-157.5 282.53,-164.5"/>
<text xml:space="preserve" text-anchor="middle" x="207.75" y="-191.74" font-family="Helvetica,sans-Serif" font-size="10.00">get_tool()</text>
</g>
<!-- frameworks&#45;&gt;workflow -->
<g id="edge18" class="edge">
<title>frameworks&#45;&gt;workflow</title>
<path fill="none" stroke="black" d="M167.5,-273.52C167.5,-273.52 167.5,-184.7 167.5,-184.7"/>
<polygon fill="black" stroke="black" points="171,-184.7 167.5,-174.7 164,-184.7 171,-184.7"/>
<text xml:space="preserve" text-anchor="middle" x="126.25" y="-230.86" font-family="Helvetica,sans-Serif" font-size="10.00">WorkflowController</text>
</g>
<!-- frameworks&#45;&gt;adapters -->
<g id="edge15" class="edge">
<title>frameworks&#45;&gt;adapters</title>
<path fill="none" stroke="black" d="M185.75,-310.49C185.75,-330.93 185.75,-361 185.75,-361 185.75,-361 1053.38,-361 1053.38,-361 1053.38,-361 1053.38,-322 1053.38,-322"/>
<polygon fill="black" stroke="black" points="1056.88,-322 1053.38,-312 1049.88,-322 1056.88,-322"/>
<text xml:space="preserve" text-anchor="middle" x="592.06" y="-362.75" font-family="Helvetica,sans-Serif" font-size="10.00">generate()</text>
</g>
<!-- benchmark&#45;&gt;Mind2WebDataset -->
<g id="edge24" class="edge">
<title>benchmark&#45;&gt;Mind2WebDataset</title>
<path fill="none" stroke="black" d="M560.75,-310.48C560.75,-310.48 560.75,-399.3 560.75,-399.3"/>
<polygon fill="black" stroke="black" points="557.25,-399.3 560.75,-409.3 564.25,-399.3 557.25,-399.3"/>
<text xml:space="preserve" text-anchor="middle" x="530" y="-356.64" font-family="Helvetica,sans-Serif" font-size="10.00">load_dataset()</text>
</g>
<!-- benchmark&#45;&gt;adapters -->
<g id="edge25" class="edge">
<title>benchmark&#45;&gt;adapters</title>
<path fill="none" stroke="black" d="M604.83,-286C604.83,-286 1029.67,-286 1029.67,-286"/>
<polygon fill="black" stroke="black" points="1029.67,-289.5 1039.67,-286 1029.67,-282.5 1029.67,-289.5"/>
<text xml:space="preserve" text-anchor="middle" x="805.62" y="-287.75" font-family="Helvetica,sans-Serif" font-size="10.00">judge</text>
</g>
</g>
</svg>
