<?xml version="1.0" encoding="UTF-8" standalone="no"?>
<!DOCTYPE svg PUBLIC "-//W3C//DTD SVG 1.1//EN"
 "http://www.w3.org/Graphics/SVG/1.1/DTD/svg11.dtd">
<!-- Generated by graphviz version 2.43.0 (0)
 -->
<!-- Title: MASTIF_Packages Pages: 1 -->
<svg width="1451pt" height="349pt"
 viewBox="0.00 0.00 1450.50 349.00" xmlns="http://www.w3.org/2000/svg" xmlns:xlink="http://www.w3.org/1999/xlink">
<g id="graph0" class="graph" transform="scale(1 1) rotate(0) translate(4 345)">
<title>MASTIF_Packages</title>
<polygon fill="white" stroke="transparent" points="-4,4 -4,-345 1446.5,-345 1446.5,4 -4,4"/>
<!-- HuggingFaceAPI -->
<g id="node1" class="node">
<title>HuggingFaceAPI</title>
<polygon fill="#e0e0e0" stroke="black" points="1442.5,-64 1345.5,-64 1345.5,-60 1341.5,-60 1341.5,-56 1345.5,-56 1345.5,-36 1341.5,-36 1341.5,-32 1345.5,-32 1345.5,-28 1442.5,-28 1442.5,-64"/>
<polyline fill="none" stroke="black" points="1345.5,-60 1349.5,-60 1349.5,-56 1345.5,-56 "/>
<polyline fill="none" stroke="black" points="1345.5,-36 1349.5,-36 1349.5,-32 1345.5,-32 "/>
<text text-anchor="middle" x="1394" y="-49.4" font-family="Helvetica,sans-Serif" font-size="12.00">HuggingFace</text>
<text text-anchor="middle" x="1394" y="-36.4" font-family="Helvetica,sans-Serif" font-size="12.00">Inference API</text>
</g>
<!-- OpenAIAPI -->
<g id="node2" class="node">
<title>OpenAIAPI</title>
<polygon fill="#e0e0e0" stroke="black" points="1273,-64 1189,-64 1189,-60 1185,-60 1185,-56 1189,-56 1189,-36 1185,-36 1185,-32 1189,-32 1189,-28 1273,-28 1273,-64"/>
<polyline fill="none" stroke="black" points="1189,-60 1193,-60 1193,-56 1189,-56 "/>
<polyline fill="none" stroke="black" points="1189,-36 1193,-36 1193,-32 1189,-32 "/>
<text text-anchor="middle" x="1231" y="-42.9" font-family="Helvetica,sans-Serif" font-size="12.00">OpenAI API</text>
</g>
<!-- Mind2WebDataset -->
<g id="node3" class="node">
<title>Mind2WebDataset</title>
<polygon fill="#e0e0e0" stroke="black" points="561,-64 469,-64 469,-60 465,-60 465,-56 469,-56 469,-36 465,-36 465,-32 469,-32 469,-28 561,-28 561,-64"/>
<polyline fill="none" stroke="black" points="469,-60 473,-60 473,-56 469,-56 "/>
<polyline fill="none" stroke="black" points="469,-36 473,-36 473,-32 469,-32 "/>
<text text-anchor="middle" x="515" y="-49.4" font-family="Helvetica,sans-Serif" font-size="12.00">Mind2Web</text>
<text text-anchor="middle" x="515" y="-36.4" font-family="Helvetica,sans-Serif" font-size="12.00">Dataset (HF)</text>
</g>
<!-- tester -->
<g id="node4" class="node">
<title>tester</title>
<path fill="#4a90d9" stroke="black" d="M636.5,-338C636.5,-338 599.5,-338 599.5,-338 593.5,-338 587.5,-332 587.5,-326 587.5,-326 587.5,-314 587.5,-314 587.5,-308 593.5,-302 599.5,-302 599.5,-302 636.5,-302 636.5,-302 642.5,-302 648.5,-308 648.5,-314 648.5,-314 648.5,-326 648.5,-326 648.5,-332 642.5,-338 636.5,-338"/>
<text text-anchor="middle" x="618" y="-316.6" font-family="Helvetica,sans-Serif" font-weight="bold" font-size="13.00" fill="white">tester</text>
</g>
<!-- config -->
<g id="node5" class="node">
<title>config</title>
<path fill="#f0a500" stroke="black" d="M1104.5,-64C1104.5,-64 1067.5,-64 1067.5,-64 1061.5,-64 1055.5,-58 1055.5,-52 1055.5,-52 1055.5,-40 1055.5,-40 1055.5,-34 1061.5,-28 1067.5,-28 1067.5,-28 1104.5,-28 1104.5,-28 1110.5,-28 1116.5,-34 1116.5,-40 1116.5,-40 1116.5,-52 1116.5,-52 1116.5,-58 1110.5,-64 1104.5,-64"/>
<text text-anchor="middle" x="1086" y="-42.6" font-family="Helvetica,sans-Serif" font-weight="bold" font-size="13.00" fill="white">config</text>
</g>
<!-- tester&#45;&gt;config -->
<g id="edge7" class="edge">
<title>tester&#45;&gt;config</title>
<path fill="none" stroke="black" d="M648.71,-323C752.82,-323 1086,-323 1086,-323 1086,-323 1086,-74.17 1086,-74.17"/>
<polygon fill="black" stroke="black" points="1089.5,-74.17 1086,-64.17 1082.5,-74.17 1089.5,-74.17"/>
<text text-anchor="middle" x="977.77" y="-326" font-family="Helvetica,sans-Serif" font-size="10.00">reads</text>
</g>
<!-- domain_model -->
<g id="node6" class="node">
<title>domain_model</title>
<path fill="#5ba8a0" stroke="black" d="M971,-64C971,-64 873,-64 873,-64 867,-64 861,-58 861,-52 861,-52 861,-40 861,-40 861,-34 867,-28 873,-28 873,-28 971,-28 971,-28 977,-28 983,-34 983,-40 983,-40 983,-52 983,-52 983,-58 977,-64 971,-64"/>
<text text-anchor="middle" x="922" y="-42.6" font-family="Helvetica,sans-Serif" font-weight="bold" font-size="13.00" fill="white">domain_model</text>
</g>
<!-- tester&#45;&gt;domain_model -->
<g id="edge6" class="edge">
<title>tester&#45;&gt;domain_model</title>
<path fill="none" stroke="black" d="M648.54,-316C725.63,-316 922,-316 922,-316 922,-316 922,-74.13 922,-74.13"/>
<polygon fill="black" stroke="black" points="925.5,-74.13 922,-64.13 918.5,-74.13 925.5,-74.13"/>
<text text-anchor="middle" x="883.7" y="-319" font-family="Helvetica,sans-Serif" font-size="10.00">produces</text>
</g>
<!-- protocols -->
<g id="node7" class="node">
<title>protocols</title>
<path fill="#5b8cc8" stroke="black" d="M229.5,-64C229.5,-64 168.5,-64 168.5,-64 162.5,-64 156.5,-58 156.5,-52 156.5,-52 156.5,-40 156.5,-40 156.5,-34 162.5,-28 168.5,-28 168.5,-28 229.5,-28 229.5,-28 235.5,-28 241.5,-34 241.5,-40 241.5,-40 241.5,-52 241.5,-52 241.5,-58 235.5,-64 229.5,-64"/>
<text text-anchor="middle" x="199" y="-42.6" font-family="Helvetica,sans-Serif" font-weight="bold" font-size="13.00" fill="white">protocols</text>
</g>
<!-- tester&#45;&gt;protocols -->
<g id="edge2" class="edge">
<title>tester&#45;&gt;protocols</title>
<path fill="none" stroke="black" d="M587.19,-323C490.43,-323 199,-323 199,-323 199,-323 199,-74.17 199,-74.17"/>
<polygon fill="black" stroke="black" points="202.5,-74.17 199,-64.17 195.5,-74.17 202.5,-74.17"/>
<text text-anchor="middle" x="257.18" y="-326" font-family="Helvetica,sans-Serif" font-size="10.00">uses</text>
</g>
<!-- tool_pool -->
<g id="node8" class="node">
<title>tool_pool</title>
<path fill="#e0960a" stroke="black" d="M384.5,-64C384.5,-64 325.5,-64 325.5,-64 319.5,-64 313.5,-58 313.5,-52 313.5,-52 313.5,-40 313.5,-40 313.5,-34 319.5,-28 325.5,-28 325.5,-28 384.5,-28 384.5,-28 390.5,-28 396.5,-34 396.5,-40 396.5,-40 396.5,-52 396.5,-52 396.5,-58 390.5,-64 384.5,-64"/>
<text text-anchor="middle" x="355" y="-42.6" font-family="Helvetica,sans-Serif" font-weight="bold" font-size="13.00" fill="white">tool_pool</text>
</g>
<!-- tester&#45;&gt;tool_pool -->
<g id="edge5" class="edge">
<title>tester&#45;&gt;tool_pool</title>
<path fill="none" stroke="black" d="M587.03,-309C521.24,-309 373.5,-309 373.5,-309 373.5,-309 373.5,-74.08 373.5,-74.08"/>
<polygon fill="black" stroke="black" points="377,-74.08 373.5,-64.08 370,-74.08 377,-74.08"/>
<text text-anchor="middle" x="359.5" y="-301.31" font-family="Helvetica,sans-Serif" font-size="10.00">reads</text>
</g>
<!-- workflow -->
<g id="node9" class="node">
<title>workflow</title>
<path fill="#8a5ba0" stroke="black" d="M72,-64C72,-64 12,-64 12,-64 6,-64 0,-58 0,-52 0,-52 0,-40 0,-40 0,-34 6,-28 12,-28 12,-28 72,-28 72,-28 78,-28 84,-34 84,-40 84,-40 84,-52 84,-52 84,-58 78,-64 72,-64"/>
<text text-anchor="middle" x="42" y="-42.6" font-family="Helvetica,sans-Serif" font-weight="bold" font-size="13.00" fill="white">workflow</text>
</g>
<!-- tester&#45;&gt;workflow -->
<g id="edge8" class="edge">
<title>tester&#45;&gt;workflow</title>
<path fill="none" stroke="black" d="M587.11,-330C465.71,-330 28,-330 28,-330 28,-330 28,-74.2 28,-74.2"/>
<polygon fill="black" stroke="black" points="31.5,-74.2 28,-64.2 24.5,-74.2 31.5,-74.2"/>
<text text-anchor="middle" x="168.15" y="-333" font-family="Helvetica,sans-Serif" font-size="10.00">uses</text>
</g>
<!-- experiment_logger -->
<g id="node10" class="node">
<title>experiment_logger</title>
<path fill="#c0463a" stroke="black" d="M776.5,-64C776.5,-64 645.5,-64 645.5,-64 639.5,-64 633.5,-58 633.5,-52 633.5,-52 633.5,-40 633.5,-40 633.5,-34 639.5,-28 645.5,-28 645.5,-28 776.5,-28 776.5,-28 782.5,-28 788.5,-34 788.5,-40 788.5,-40 788.5,-52 788.5,-52 788.5,-58 782.5,-64 776.5,-64"/>
<text text-anchor="middle" x="711" y="-42.6" font-family="Helvetica,sans-Serif" font-weight="bold" font-size="13.00" fill="white">experiment_logger</text>
</g>
<!-- tester&#45;&gt;experiment_logger -->
<g id="edge9" class="edge">
<title>tester&#45;&gt;experiment_logger</title>
<path fill="none" stroke="black" d="M648.57,-309C681.05,-309 727.75,-309 727.75,-309 727.75,-309 727.75,-74.08 727.75,-74.08"/>
<polygon fill="black" stroke="black" points="731.25,-74.08 727.75,-64.08 724.25,-74.08 731.25,-74.08"/>
<text text-anchor="middle" x="683.75" y="-234.13" font-family="Helvetica,sans-Serif" font-size="10.00">delegates logging</text>
</g>
<!-- adapters -->
<g id="node11" class="node">
<title>adapters</title>
<path fill="#7dbb7d" stroke="black" d="M1247,-201C1247,-201 1189,-201 1189,-201 1183,-201 1177,-195 1177,-189 1177,-189 1177,-177 1177,-177 1177,-171 1183,-165 1189,-165 1189,-165 1247,-165 1247,-165 1253,-165 1259,-171 1259,-177 1259,-177 1259,-189 1259,-189 1259,-195 1253,-201 1247,-201"/>
<text text-anchor="middle" x="1218" y="-179.6" font-family="Helvetica,sans-Serif" font-weight="bold" font-size="13.00" fill="white">adapters</text>
</g>
<!-- tester&#45;&gt;adapters -->
<g id="edge1" class="edge">
<title>tester&#45;&gt;adapters</title>
<path fill="none" stroke="black" d="M648.58,-330C770.85,-330 1218,-330 1218,-330 1218,-330 1218,-211.03 1218,-211.03"/>
<polygon fill="black" stroke="black" points="1221.5,-211.03 1218,-201.03 1214.5,-211.03 1221.5,-211.03"/>
<text text-anchor="middle" x="1004.28" y="-333" font-family="Helvetica,sans-Serif" font-size="10.00">uses</text>
</g>
<!-- frameworks -->
<g id="node12" class="node">
<title>frameworks</title>
<path fill="#b05ab0" stroke="black" d="M338.5,-201C338.5,-201 257.5,-201 257.5,-201 251.5,-201 245.5,-195 245.5,-189 245.5,-189 245.5,-177 245.5,-177 245.5,-171 251.5,-165 257.5,-165 257.5,-165 338.5,-165 338.5,-165 344.5,-165 350.5,-171 350.5,-177 350.5,-177 350.5,-189 350.5,-189 350.5,-195 344.5,-201 338.5,-201"/>
<text text-anchor="middle" x="298" y="-179.6" font-family="Helvetica,sans-Serif" font-weight="bold" font-size="13.00" fill="white">frameworks</text>
</g>
<!-- tester&#45;&gt;frameworks -->
<g id="edge3" class="edge">
<title>tester&#45;&gt;frameworks</title>
<path fill="none" stroke="black" d="M587.32,-316C507.22,-316 298,-316 298,-316 298,-316 298,-211.21 298,-211.21"/>
<polygon fill="black" stroke="black" points="301.5,-211.21 298,-201.21 294.5,-211.21 301.5,-211.21"/>
<text text-anchor="middle" x="377.77" y="-319" font-family="Helvetica,sans-Serif" font-size="10.00">tests</text>
</g>
<!-- benchmark -->
<g id="node13" class="node">
<title>benchmark</title>
<path fill="#a89a20" stroke="black" d="M655,-201C655,-201 581,-201 581,-201 575,-201 569,-195 569,-189 569,-189 569,-177 569,-177 569,-171 575,-165 581,-165 581,-165 655,-165 655,-165 661,-165 667,-171 667,-177 667,-177 667,-189 667,-189 667,-195 661,-201 655,-201"/>
<text text-anchor="middle" x="618" y="-179.6" font-family="Helvetica,sans-Serif" font-weight="bold" font-size="13.00" fill="white">benchmark</text>
</g>
<!-- tester&#45;&gt;benchmark -->
<g id="edge4" class="edge">
<title>tester&#45;&gt;benchmark</title>
<path fill="none" stroke="black" d="M618,-301.81C618,-301.81 618,-211.27 618,-211.27"/>
<polygon fill="black" stroke="black" points="621.5,-211.27 618,-201.27 614.5,-211.27 621.5,-211.27"/>
<text text-anchor="middle" x="593.5" y="-259.54" font-family="Helvetica,sans-Serif" font-size="10.00">evaluates</text>
</g>
<!-- workflow&#45;&gt;config -->
<g id="edge17" class="edge">
<title>workflow&#45;&gt;config</title>
<path fill="none" stroke="black" d="M21,-27.82C21,-14.96 21,0 21,0 21,0 1096.17,0 1096.17,0 1096.17,0 1096.17,-17.82 1096.17,-17.82"/>
<polygon fill="black" stroke="black" points="1092.67,-17.82 1096.17,-27.82 1099.67,-17.82 1092.67,-17.82"/>
<text text-anchor="middle" x="539.58" y="-3" font-family="Helvetica,sans-Serif" font-size="10.00">reads</text>
</g>
<!-- workflow&#45;&gt;domain_model -->
<g id="edge19" class="edge">
<title>workflow&#45;&gt;domain_model</title>
<path fill="none" stroke="black" d="M42,-27.87C42,-17.69 42,-7 42,-7 42,-7 922,-7 922,-7 922,-7 922,-17.87 922,-17.87"/>
<polygon fill="black" stroke="black" points="918.5,-17.87 922,-27.87 925.5,-17.87 918.5,-17.87"/>
<text text-anchor="middle" x="465.5" y="-10" font-family="Helvetica,sans-Serif" font-size="10.00">uses</text>
</g>
<!-- workflow&#45;&gt;tool_pool -->
<g id="edge18" class="edge">
<title>workflow&#45;&gt;tool_pool</title>
<path fill="none" stroke="black" d="M63,-27.76C63,-20.57 63,-14 63,-14 63,-14 355,-14 355,-14 355,-14 355,-17.76 355,-17.76"/>
<polygon fill="black" stroke="black" points="351.5,-17.76 355,-27.76 358.5,-17.76 351.5,-17.76"/>
<text text-anchor="middle" x="160" y="-17" font-family="Helvetica,sans-Serif" font-size="10.00">invoke() for ReAct</text>
</g>
<!-- experiment_logger&#45;&gt;config -->
<g id="edge21" class="edge">
<title>experiment_logger&#45;&gt;config</title>
<path fill="none" stroke="black" d="M711,-27.83C711,-23.95 711,-21 711,-21 711,-21 1075.83,-21 1075.83,-21 1075.83,-21 1075.83,-21.68 1075.83,-21.68"/>
<polygon fill="black" stroke="black" points="1072.33,-17.83 1075.83,-27.83 1079.33,-17.83 1072.33,-17.83"/>
<text text-anchor="middle" x="845.34" y="-13" font-family="Helvetica,sans-Serif" font-size="10.00">reads (yaml_path)</text>
</g>
<!-- experiment_logger&#45;&gt;domain_model -->
<g id="edge20" class="edge">
<title>experiment_logger&#45;&gt;domain_model</title>
<path fill="none" stroke="black" d="M788.67,-46C788.67,-46 850.99,-46 850.99,-46"/>
<polygon fill="black" stroke="black" points="850.99,-49.5 860.99,-46 850.99,-42.5 850.99,-49.5"/>
<text text-anchor="middle" x="819.83" y="-38" font-family="Helvetica,sans-Serif" font-size="10.00">reads/writes</text>
</g>
<!-- adapters&#45;&gt;HuggingFaceAPI -->
<g id="edge10" class="edge">
<title>adapters&#45;&gt;HuggingFaceAPI</title>
<path fill="none" stroke="black" stroke-width="2" d="M1259.26,-183C1311.28,-183 1394,-183 1394,-183 1394,-183 1394,-74.19 1394,-74.19"/>
<polygon fill="black" stroke="black" stroke-width="2" points="1397.5,-74.19 1394,-64.19 1390.5,-74.19 1397.5,-74.19"/>
<text text-anchor="middle" x="1336.54" y="-186" font-family="Helvetica,sans-Serif" font-size="10.00">chat_completion()</text>
</g>
<!-- adapters&#45;&gt;OpenAIAPI -->
<g id="edge11" class="edge">
<title>adapters&#45;&gt;OpenAIAPI</title>
<path fill="none" stroke="black" stroke-width="2" d="M1224,-164.81C1224,-164.81 1224,-74.27 1224,-74.27"/>
<polygon fill="black" stroke="black" stroke-width="2" points="1227.5,-74.27 1224,-64.27 1220.5,-74.27 1227.5,-74.27"/>
<text text-anchor="middle" x="1161" y="-122.54" font-family="Helvetica,sans-Serif" font-size="10.00">chat.completions.create()</text>
</g>
<!-- adapters&#45;&gt;config -->
<g id="edge12" class="edge">
<title>adapters&#45;&gt;config</title>
<path fill="none" stroke="black" d="M1185,-164.81C1185,-127.54 1185,-46 1185,-46 1185,-46 1126.51,-46 1126.51,-46"/>
<polygon fill="black" stroke="black" points="1126.51,-42.5 1116.51,-46 1126.51,-49.5 1126.51,-42.5"/>
<text text-anchor="middle" x="1171" y="-79.16" font-family="Helvetica,sans-Serif" font-size="10.00">reads</text>
</g>
<!-- frameworks&#45;&gt;protocols -->
<g id="edge15" class="edge">
<title>frameworks&#45;&gt;protocols</title>
<path fill="none" stroke="black" d="M279.5,-164.81C279.5,-127.54 279.5,-46 279.5,-46 279.5,-46 251.61,-46 251.61,-46"/>
<polygon fill="black" stroke="black" points="251.61,-42.5 241.61,-46 251.61,-49.5 251.61,-42.5"/>
<text text-anchor="middle" x="264.5" y="-94.46" font-family="Helvetica,sans-Serif" font-size="10.00">wraps</text>
</g>
<!-- frameworks&#45;&gt;tool_pool -->
<g id="edge14" class="edge">
<title>frameworks&#45;&gt;tool_pool</title>
<path fill="none" stroke="black" d="M325.83,-164.81C325.83,-164.81 325.83,-74.27 325.83,-74.27"/>
<polygon fill="black" stroke="black" points="329.33,-74.27 325.83,-64.27 322.33,-74.27 329.33,-74.27"/>
<text text-anchor="middle" x="301.83" y="-122.54" font-family="Helvetica,sans-Serif" font-size="10.00">get_tool()</text>
</g>
<!-- frameworks&#45;&gt;workflow -->
<g id="edge16" class="edge">
<title>frameworks&#45;&gt;workflow</title>
<path fill="none" stroke="black" d="M245.49,-183C174.32,-183 56,-183 56,-183 56,-183 56,-74.19 56,-74.19"/>
<polygon fill="black" stroke="black" points="59.5,-74.19 56,-64.19 52.5,-74.19 59.5,-74.19"/>
<text text-anchor="middle" x="49.34" y="-186" font-family="Helvetica,sans-Serif" font-size="10.00">WorkflowController</text>
</g>
<!-- frameworks&#45;&gt;adapters -->
<g id="edge13" class="edge">
<title>frameworks&#45;&gt;adapters</title>
<path fill="none" stroke="black" d="M338.17,-164.87C338.17,-144.43 338.17,-114 338.17,-114 338.17,-114 1181,-114 1181,-114 1181,-114 1181,-154.87 1181,-154.87"/>
<polygon fill="black" stroke="black" points="1177.5,-154.87 1181,-164.87 1184.5,-154.87 1177.5,-154.87"/>
<text text-anchor="middle" x="728.58" y="-117" font-family="Helvetica,sans-Serif" font-size="10.00">generate()</text>
</g>
<!-- benchmark&#45;&gt;Mind2WebDataset -->
<g id="edge22" class="edge">
<title>benchmark&#45;&gt;Mind2WebDataset</title>
<path fill="none" stroke="black" stroke-width="2" d="M601.25,-164.81C601.25,-127.54 601.25,-46 601.25,-46 601.25,-46 571.16,-46 571.16,-46"/>
<polygon fill="black" stroke="black" stroke-width="2" points="571.16,-42.5 561.16,-46 571.15,-49.5 571.16,-42.5"/>
<text text-anchor="middle" x="565.75" y="-93.36" font-family="Helvetica,sans-Serif" font-size="10.00">load_dataset()</text>
</g>
<!-- benchmark&#45;&gt;adapters -->
<g id="edge23" class="edge">
<title>benchmark&#45;&gt;adapters</title>
<path fill="none" stroke="black" d="M667.1,-183C667.1,-183 1166.75,-183 1166.75,-183"/>
<polygon fill="black" stroke="black" points="1166.75,-186.5 1176.75,-183 1166.75,-179.5 1166.75,-186.5"/>
<text text-anchor="middle" x="902.93" y="-186" font-family="Helvetica,sans-Serif" font-size="10.00">judge</text>
</g>
</g>
</svg>
