<?xml version="1.0" encoding="UTF-8" standalone="no"?>
<!DOCTYPE svg PUBLIC "-//W3C//DTD SVG 1.1//EN"
 "http://www.w3.org/Graphics/SVG/1.1/DTD/svg11.dtd">
<!-- Generated by graphviz version 14.0.1 (20251006.0113)
 -->
<!-- Title: MASTIF_Packages Pages: 1 -->
<svg width="1225pt" height="344pt"
 viewBox="0.00 0.00 1225.00 344.00" xmlns="http://www.w3.org/2000/svg" xmlns:xlink="http://www.w3.org/1999/xlink">
<g id="graph0" class="graph" transform="scale(1 1) rotate(0) translate(4 340.25)">
<title>MASTIF_Packages</title>
<polygon fill="white" stroke="none" points="-4,4 -4,-340.25 1220.88,-340.25 1220.88,4 -4,4"/>
<!-- HuggingFaceAPI -->
<g id="node1" class="node">
<title>HuggingFaceAPI</title>
<polygon fill="#e0e0e0" stroke="black" points="1066.12,-60 977.38,-60 977.38,-56 973.38,-56 973.38,-52 977.38,-52 977.38,-32 973.38,-32 973.38,-28 977.38,-28 977.38,-24 1066.12,-24 1066.12,-60"/>
<polyline fill="none" stroke="black" points="977.38,-56 981.38,-56 981.38,-52 977.38,-52"/>
<polyline fill="none" stroke="black" points="977.38,-32 981.38,-32 981.38,-28 977.38,-28"/>
<text xml:space="preserve" text-anchor="middle" x="1021.75" y="-43.35" font-family="Helvetica,sans-Serif" font-size="12.00">HuggingFace</text>
<text xml:space="preserve" text-anchor="middle" x="1021.75" y="-30.6" font-family="Helvetica,sans-Serif" font-size="12.00">Inference API</text>
</g>
<!-- OpenAIAPI -->
<g id="node2" class="node">
<title>OpenAIAPI</title>
<polygon fill="#e0e0e0" stroke="black" points="1216.88,-60 1138.62,-60 1138.62,-56 1134.62,-56 1134.62,-52 1138.62,-52 1138.62,-32 1134.62,-32 1134.62,-28 1138.62,-28 1138.62,-24 1216.88,-24 1216.88,-60"/>
<polyline fill="none" stroke="black" points="1138.62,-56 1142.62,-56 1142.62,-52 1138.62,-52"/>
<polyline fill="none" stroke="black" points="1138.62,-32 1142.62,-32 1142.62,-28 1138.62,-28"/>
<text xml:space="preserve" text-anchor="middle" x="1177.75" y="-36.98" font-family="Helvetica,sans-Serif" font-size="12.00">OpenAI API</text>
</g>
<!-- Mind2WebDataset -->
<g id="node3" class="node">
<title>Mind2WebDataset</title>
<polygon fill="#e0e0e0" stroke="black" points="594.88,-60 510.62,-60 510.62,-56 506.62,-56 506.62,-52 510.62,-52 510.62,-32 506.62,-32 506.62,-28 510.62,-28 510.62,-24 594.88,-24 594.88,-60"/>
<polyline fill="none" stroke="black" points="510.62,-56 514.62,-56 514.62,-52 510.62,-52"/>
<polyline fill="none" stroke="black" points="510.62,-32 514.62,-32 514.62,-28 510.62,-28"/>
<text xml:space="preserve" text-anchor="middle" x="552.75" y="-43.35" font-family="Helvetica,sans-Serif" font-size="12.00">Mind2Web</text>
<text xml:space="preserve" text-anchor="middle" x="552.75" y="-30.6" font-family="Helvetica,sans-Serif" font-size="12.00">Dataset (HF)</text>
</g>
<!-- tester -->
<g id="node4" class="node">
<title>tester</title>
<path fill="#4a90d9" stroke="black" d="M511.75,-334C511.75,-334 481.75,-334 481.75,-334 475.75,-334 469.75,-328 469.75,-322 469.75,-322 469.75,-310 469.75,-310 469.75,-304 475.75,-298 481.75,-298 481.75,-298 511.75,-298 511.75,-298 517.75,-298 523.75,-304 523.75,-310 523.75,-310 523.75,-322 523.75,-322 523.75,-328 517.75,-334 511.75,-334"/>
<text xml:space="preserve" text-anchor="middle" x="496.75" y="-310.4" font-family="Helvetica,sans-Serif" font-weight="bold" font-size="13.00" fill="white">tester</text>
</g>
<!-- config -->
<g id="node5" class="node">
<title>config</title>
<path fill="#f0a500" stroke="black" d="M893,-60C893,-60 860.5,-60 860.5,-60 854.5,-60 848.5,-54 848.5,-48 848.5,-48 848.5,-36 848.5,-36 848.5,-30 854.5,-24 860.5,-24 860.5,-24 893,-24 893,-24 899,-24 905,-30 905,-36 905,-36 905,-48 905,-48 905,-54 899,-60 893,-60"/>
<text xml:space="preserve" text-anchor="middle" x="876.75" y="-36.4" font-family="Helvetica,sans-Serif" font-weight="bold" font-size="13.00" fill="white">config</text>
</g>
<!-- tester&#45;&gt;config -->
<g id="edge7" class="edge">
<title>tester&#45;&gt;config</title>
<path fill="none" stroke="black" d="M524,-316C609.58,-316 867.33,-316 867.33,-316 867.33,-316 867.33,-71.92 867.33,-71.92"/>
<polygon fill="black" stroke="black" points="870.83,-71.92 867.33,-61.92 863.83,-71.92 870.83,-71.92"/>
<text xml:space="preserve" text-anchor="middle" x="805.71" y="-317.75" font-family="Helvetica,sans-Serif" font-size="10.00">reads</text>
</g>
<!-- domain_model -->
<g id="node6" class="node">
<title>domain_model</title>
<path fill="#5ba8a0" stroke="black" d="M764.62,-60C764.62,-60 678.88,-60 678.88,-60 672.88,-60 666.88,-54 666.88,-48 666.88,-48 666.88,-36 666.88,-36 666.88,-30 672.88,-24 678.88,-24 678.88,-24 764.62,-24 764.62,-24 770.62,-24 776.62,-30 776.62,-36 776.62,-36 776.62,-48 776.62,-48 776.62,-54 770.62,-60 764.62,-60"/>
<text xml:space="preserve" text-anchor="middle" x="721.75" y="-36.4" font-family="Helvetica,sans-Serif" font-weight="bold" font-size="13.00" fill="white">domain_model</text>
</g>
<!-- tester&#45;&gt;domain_model -->
<g id="edge6" class="edge">
<title>tester&#45;&gt;domain_model</title>
<path fill="none" stroke="black" d="M523.89,-307C583.73,-307 721.75,-307 721.75,-307 721.75,-307 721.75,-71.73 721.75,-71.73"/>
<polygon fill="black" stroke="black" points="725.25,-71.73 721.75,-61.73 718.25,-71.73 725.25,-71.73"/>
<text xml:space="preserve" text-anchor="middle" x="701.88" y="-290.04" font-family="Helvetica,sans-Serif" font-size="10.00">produces</text>
</g>
<!-- protocols -->
<g id="node7" class="node">
<title>protocols</title>
<path fill="#5b8cc8" stroke="black" d="M65.5,-60C65.5,-60 12,-60 12,-60 6,-60 0,-54 0,-48 0,-48 0,-36 0,-36 0,-30 6,-24 12,-24 12,-24 65.5,-24 65.5,-24 71.5,-24 77.5,-30 77.5,-36 77.5,-36 77.5,-48 77.5,-48 77.5,-54 71.5,-60 65.5,-60"/>
<text xml:space="preserve" text-anchor="middle" x="38.75" y="-36.4" font-family="Helvetica,sans-Serif" font-weight="bold" font-size="13.00" fill="white">protocols</text>
</g>
<!-- tester&#45;&gt;protocols -->
<g id="edge2" class="edge">
<title>tester&#45;&gt;protocols</title>
<path fill="none" stroke="black" d="M469.36,-322C368.72,-322 25.21,-322 25.21,-322 25.21,-322 25.21,-71.89 25.21,-71.89"/>
<polygon fill="black" stroke="black" points="28.71,-71.89 25.21,-61.89 21.71,-71.89 28.71,-71.89"/>
<text xml:space="preserve" text-anchor="middle" x="111.73" y="-323.75" font-family="Helvetica,sans-Serif" font-size="10.00">uses</text>
</g>
<!-- tool_pool -->
<g id="node8" class="node">
<title>tool_pool</title>
<path fill="#e0960a" stroke="black" d="M426.12,-60C426.12,-60 373.38,-60 373.38,-60 367.38,-60 361.38,-54 361.38,-48 361.38,-48 361.38,-36 361.38,-36 361.38,-30 367.38,-24 373.38,-24 373.38,-24 426.12,-24 426.12,-24 432.12,-24 438.12,-30 438.12,-36 438.12,-36 438.12,-48 438.12,-48 438.12,-54 432.12,-60 426.12,-60"/>
<text xml:space="preserve" text-anchor="middle" x="399.75" y="-36.4" font-family="Helvetica,sans-Serif" font-weight="bold" font-size="13.00" fill="white">tool_pool</text>
</g>
<!-- tester&#45;&gt;tool_pool -->
<g id="edge5" class="edge">
<title>tester&#45;&gt;tool_pool</title>
<path fill="none" stroke="black" d="M497,-297.6C497,-236.16 497,-42 497,-42 497,-42 449.98,-42 449.98,-42"/>
<polygon fill="black" stroke="black" points="449.98,-38.5 439.98,-42 449.98,-45.5 449.98,-38.5"/>
<text xml:space="preserve" text-anchor="middle" x="485" y="-148.04" font-family="Helvetica,sans-Serif" font-size="10.00">reads</text>
</g>
<!-- workflow -->
<g id="node9" class="node">
<title>workflow</title>
<path fill="#8a5ba0" stroke="black" d="M277.25,-60C277.25,-60 228.25,-60 228.25,-60 222.25,-60 216.25,-54 216.25,-48 216.25,-48 216.25,-36 216.25,-36 216.25,-30 222.25,-24 228.25,-24 228.25,-24 277.25,-24 277.25,-24 283.25,-24 289.25,-30 289.25,-36 289.25,-36 289.25,-48 289.25,-48 289.25,-54 283.25,-60 277.25,-60"/>
<text xml:space="preserve" text-anchor="middle" x="252.75" y="-36.4" font-family="Helvetica,sans-Serif" font-weight="bold" font-size="13.00" fill="white">workflow</text>
</g>
<!-- tester&#45;&gt;workflow -->
<g id="edge8" class="edge">
<title>tester&#45;&gt;workflow</title>
<path fill="none" stroke="black" d="M469.7,-310C408.55,-310 264.92,-310 264.92,-310 264.92,-310 264.92,-71.93 264.92,-71.93"/>
<polygon fill="black" stroke="black" points="268.42,-71.93 264.92,-61.93 261.42,-71.93 268.42,-71.93"/>
<text xml:space="preserve" text-anchor="middle" x="254.42" y="-295.11" font-family="Helvetica,sans-Serif" font-size="10.00">uses</text>
</g>
<!-- adapters -->
<g id="node10" class="node">
<title>adapters</title>
<path fill="#7dbb7d" stroke="black" d="M1041.88,-197C1041.88,-197 993.62,-197 993.62,-197 987.62,-197 981.62,-191 981.62,-185 981.62,-185 981.62,-173 981.62,-173 981.62,-167 987.62,-161 993.62,-161 993.62,-161 1041.88,-161 1041.88,-161 1047.88,-161 1053.88,-167 1053.88,-173 1053.88,-173 1053.88,-185 1053.88,-185 1053.88,-191 1047.88,-197 1041.88,-197"/>
<text xml:space="preserve" text-anchor="middle" x="1017.75" y="-173.4" font-family="Helvetica,sans-Serif" font-weight="bold" font-size="13.00" fill="white">adapters</text>
</g>
<!-- tester&#45;&gt;adapters -->
<g id="edge1" class="edge">
<title>tester&#45;&gt;adapters</title>
<path fill="none" stroke="black" d="M524.03,-325C631.23,-325 1017.75,-325 1017.75,-325 1017.75,-325 1017.75,-209 1017.75,-209"/>
<polygon fill="black" stroke="black" points="1021.25,-209 1017.75,-199 1014.25,-209 1021.25,-209"/>
<text xml:space="preserve" text-anchor="middle" x="839.39" y="-326.75" font-family="Helvetica,sans-Serif" font-size="10.00">uses</text>
</g>
<!-- frameworks -->
<g id="node11" class="node">
<title>frameworks</title>
<path fill="#b05ab0" stroke="black" d="M153.88,-197C153.88,-197 87.62,-197 87.62,-197 81.62,-197 75.62,-191 75.62,-185 75.62,-185 75.62,-173 75.62,-173 75.62,-167 81.62,-161 87.62,-161 87.62,-161 153.88,-161 153.88,-161 159.88,-161 165.88,-167 165.88,-173 165.88,-173 165.88,-185 165.88,-185 165.88,-191 159.88,-197 153.88,-197"/>
<text xml:space="preserve" text-anchor="middle" x="120.75" y="-173.4" font-family="Helvetica,sans-Serif" font-weight="bold" font-size="13.00" fill="white">frameworks</text>
</g>
<!-- tester&#45;&gt;frameworks -->
<g id="edge3" class="edge">
<title>tester&#45;&gt;frameworks</title>
<path fill="none" stroke="black" d="M483.38,-297.68C483.38,-262.73 483.38,-190 483.38,-190 483.38,-190 177.82,-190 177.82,-190"/>
<polygon fill="black" stroke="black" points="177.82,-186.5 167.82,-190 177.82,-193.5 177.82,-186.5"/>
<text xml:space="preserve" text-anchor="middle" x="373.56" y="-191.75" font-family="Helvetica,sans-Serif" font-size="10.00">tests</text>
</g>
<!-- benchmark -->
<g id="node12" class="node">
<title>benchmark</title>
<path fill="#a89a20" stroke="black" d="M605.38,-197C605.38,-197 542.12,-197 542.12,-197 536.12,-197 530.12,-191 530.12,-185 530.12,-185 530.12,-173 530.12,-173 530.12,-167 536.12,-161 542.12,-161 542.12,-161 605.38,-161 605.38,-161 611.38,-161 617.38,-167 617.38,-173 617.38,-173 617.38,-185 617.38,-185 617.38,-191 611.38,-197 605.38,-197"/>
<text xml:space="preserve" text-anchor="middle" x="573.75" y="-173.4" font-family="Helvetica,sans-Serif" font-weight="bold" font-size="13.00" fill="white">benchmark</text>
</g>
<!-- tester&#45;&gt;benchmark -->
<g id="edge4" class="edge">
<title>tester&#45;&gt;benchmark</title>
<path fill="none" stroke="black" d="M517.19,-297.55C517.19,-257.88 517.19,-168 517.19,-168 517.19,-168 518.44,-168 518.44,-168"/>
<polygon fill="black" stroke="black" points="518.23,-171.5 528.23,-168 518.23,-164.5 518.23,-171.5"/>
<text xml:space="preserve" text-anchor="middle" x="496.19" y="-233.9" font-family="Helvetica,sans-Serif" font-size="10.00">evaluates</text>
</g>
<!-- workflow&#45;&gt;config -->
<g id="edge16" class="edge">
<title>workflow&#45;&gt;config</title>
<path fill="none" stroke="black" d="M240.58,-23.94C240.58,-12.56 240.58,0 240.58,0 240.58,0 876.75,0 876.75,0 876.75,0 876.75,-12.43 876.75,-12.43"/>
<polygon fill="black" stroke="black" points="873.25,-12.43 876.75,-22.43 880.25,-12.43 873.25,-12.43"/>
<text xml:space="preserve" text-anchor="middle" x="540.91" y="-1.75" font-family="Helvetica,sans-Serif" font-size="10.00">reads</text>
</g>
<!-- workflow&#45;&gt;domain_model -->
<g id="edge18" class="edge">
<title>workflow&#45;&gt;domain_model</title>
<path fill="none" stroke="black" d="M264.92,-23.51C264.92,-17.34 264.92,-12 264.92,-12 264.92,-12 721.75,-12 721.75,-12 721.75,-12 721.75,-13.15 721.75,-13.15"/>
<polygon fill="black" stroke="black" points="718.25,-12 721.75,-22 725.25,-12 718.25,-12"/>
<text xml:space="preserve" text-anchor="middle" x="477.65" y="-13.75" font-family="Helvetica,sans-Serif" font-size="10.00">uses</text>
</g>
<!-- workflow&#45;&gt;tool_pool -->
<g id="edge17" class="edge">
<title>workflow&#45;&gt;tool_pool</title>
<path fill="none" stroke="black" d="M289.47,-42C289.47,-42 349.42,-42 349.42,-42"/>
<polygon fill="black" stroke="black" points="349.42,-45.5 359.42,-42 349.42,-38.5 349.42,-45.5"/>
<text xml:space="preserve" text-anchor="middle" x="319.44" y="-32.5" font-family="Helvetica,sans-Serif" font-size="10.00">invoke() for ReAct</text>
</g>
<!-- adapters&#45;&gt;HuggingFaceAPI -->
<g id="edge9" class="edge">
<title>adapters&#45;&gt;HuggingFaceAPI</title>
<path fill="none" stroke="black" stroke-width="2" d="M1029.79,-160.52C1029.79,-160.52 1029.79,-71.7 1029.79,-71.7"/>
<polygon fill="black" stroke="black" stroke-width="2" points="1033.29,-73.21 1029.79,-63.21 1026.29,-73.21 1033.29,-73.21"/>
<text xml:space="preserve" text-anchor="middle" x="991.17" y="-117.86" font-family="Helvetica,sans-Serif" font-size="10.00">chat_completion()</text>
</g>
<!-- adapters&#45;&gt;OpenAIAPI -->
<g id="edge10" class="edge">
<title>adapters&#45;&gt;OpenAIAPI</title>
<path fill="none" stroke="black" stroke-width="2" d="M1054.06,-179C1101.26,-179 1177.75,-179 1177.75,-179 1177.75,-179 1177.75,-71.99 1177.75,-71.99"/>
<polygon fill="black" stroke="black" stroke-width="2" points="1181.25,-73.5 1177.75,-63.5 1174.25,-73.5 1181.25,-73.5"/>
<text xml:space="preserve" text-anchor="middle" x="1114.28" y="-180.75" font-family="Helvetica,sans-Serif" font-size="10.00">chat.completions.create()</text>
</g>
<!-- adapters&#45;&gt;config -->
<g id="edge11" class="edge">
<title>adapters&#45;&gt;config</title>
<path fill="none" stroke="black" d="M981.45,-173C942.5,-173 886.17,-173 886.17,-173 886.17,-173 886.17,-72 886.17,-72"/>
<polygon fill="black" stroke="black" points="889.67,-72 886.17,-62 882.67,-72 889.67,-72"/>
<text xml:space="preserve" text-anchor="middle" x="874.17" y="-171.89" font-family="Helvetica,sans-Serif" font-size="10.00">reads</text>
</g>
<!-- frameworks&#45;&gt;protocols -->
<g id="edge14" class="edge">
<title>frameworks&#45;&gt;protocols</title>
<path fill="none" stroke="black" d="M75.41,-179C61.8,-179 50.42,-179 50.42,-179 50.42,-179 50.42,-71.99 50.42,-71.99"/>
<polygon fill="black" stroke="black" points="53.92,-71.99 50.42,-61.99 46.92,-71.99 53.92,-71.99"/>
<text xml:space="preserve" text-anchor="middle" x="37.29" y="-139.74" font-family="Helvetica,sans-Serif" font-size="10.00">wraps</text>
</g>
<!-- frameworks&#45;&gt;tool_pool -->
<g id="edge13" class="edge">
<title>frameworks&#45;&gt;tool_pool</title>
<path fill="none" stroke="black" d="M166.2,-183C245.26,-183 399.75,-183 399.75,-183 399.75,-183 399.75,-71.95 399.75,-71.95"/>
<polygon fill="black" stroke="black" points="403.25,-71.95 399.75,-61.95 396.25,-71.95 403.25,-71.95"/>
<text xml:space="preserve" text-anchor="middle" x="318.25" y="-184.75" font-family="Helvetica,sans-Serif" font-size="10.00">get_tool()</text>
</g>
<!-- frameworks&#45;&gt;workflow -->
<g id="edge15" class="edge">
<title>frameworks&#45;&gt;workflow</title>
<path fill="none" stroke="black" d="M166.05,-175C199.99,-175 240.58,-175 240.58,-175 240.58,-175 240.58,-72.01 240.58,-72.01"/>
<polygon fill="black" stroke="black" points="244.08,-72.01 240.58,-62.01 237.08,-72.01 244.08,-72.01"/>
<text xml:space="preserve" text-anchor="middle" x="199.33" y="-151.27" font-family="Helvetica,sans-Serif" font-size="10.00">WorkflowController</text>
</g>
<!-- frameworks&#45;&gt;adapters -->
<g id="edge12" class="edge">
<title>frameworks&#45;&gt;adapters</title>
<path fill="none" stroke="black" d="M121.69,-160.78C121.69,-140.63 121.69,-111 121.69,-111 121.69,-111 1005.71,-111 1005.71,-111 1005.71,-111 1005.71,-149.26 1005.71,-149.26"/>
<polygon fill="black" stroke="black" points="1002.21,-149.26 1005.71,-159.26 1009.21,-149.26 1002.21,-149.26"/>
<text xml:space="preserve" text-anchor="middle" x="536.19" y="-112.75" font-family="Helvetica,sans-Serif" font-size="10.00">generate()</text>
</g>
<!-- benchmark&#45;&gt;Mind2WebDataset -->
<g id="edge19" class="edge">
<title>benchmark&#45;&gt;Mind2WebDataset</title>
<path fill="none" stroke="black" stroke-width="2" d="M562.5,-160.52C562.5,-160.52 562.5,-71.7 562.5,-71.7"/>
<polygon fill="black" stroke="black" stroke-width="2" points="566,-73.21 562.5,-63.21 559,-73.21 566,-73.21"/>
<text xml:space="preserve" text-anchor="middle" x="593.25" y="-117.86" font-family="Helvetica,sans-Serif" font-size="10.00">load_dataset()</text>
</g>
<!-- benchmark&#45;&gt;adapters -->
<g id="edge20" class="edge">
<title>benchmark&#45;&gt;adapters</title>
<path fill="none" stroke="black" d="M617.54,-185C617.54,-185 969.73,-185 969.73,-185"/>
<polygon fill="black" stroke="black" points="969.73,-188.5 979.73,-185 969.73,-181.5 969.73,-188.5"/>
<text xml:space="preserve" text-anchor="middle" x="782.01" y="-186.75" font-family="Helvetica,sans-Serif" font-size="10.00">judge</text>
</g>
</g>
</svg>
